<?xml version="1.0" encoding="utf-8"?>
<!-- Generator: Adobe Illustrator 26.0.1, SVG Export Plug-In . SVG Version: 6.00 Build 0)  -->
<svg version="1.1" id="Layer_1" xmlns="http://www.w3.org/2000/svg" xmlns:xlink="http://www.w3.org/1999/xlink" x="0px" y="0px"
	 viewBox="0 0 742.6 839.6" style="enable-background:new 0 0 742.6 839.6;" xml:space="preserve">
<style type="text/css">
	.st0{clip-path:url(#SVGID_00000143590676567918404320000003783526693514174337_);}
	.st1{fill:url(#SVGID_00000058559329862926562140000008143233221129608887_);}
	.st2{fill:url(#SVGID_00000100361657343061930790000010242294333906654137_);}
	.st3{fill:url(#SVGID_00000025419448674694751720000004099177529636632763_);}
	.st4{fill:url(#SVGID_00000122707027833956676010000012633521588719423363_);}
	.st5{fill:url(#SVGID_00000000205454921089358460000017705711581309413034_);}
	.st6{fill:url(#SVGID_00000052817173661404897030000000603995446012492418_);}
	.st7{fill:url(#SVGID_00000082347834385126670230000004781988302797065149_);}
	.st8{fill:url(#SVGID_00000154415429200516492390000016539757314671031480_);}
	.st9{fill:url(#SVGID_00000142870785959760154330000004644416291319643781_);}
	.st10{fill:url(#SVGID_00000109005840600949044460000016277865282897453983_);}
	.st11{fill:url(#SVGID_00000044891728234892648450000012525911389828765334_);}
	.st12{fill:url(#SVGID_00000180325267007398082840000009616502007997621647_);}
	.st13{fill:url(#SVGID_00000012469396182615570830000003628533595907937936_);}
	.st14{fill:url(#SVGID_00000039830525224667997290000015257360766449811338_);}
	.st15{fill:url(#SVGID_00000017509280143683195570000005711703242080538796_);}
	.st16{fill:url(#SVGID_00000034060748208407249540000013673486343014061723_);}
	.st17{fill:url(#SVGID_00000116196584996387368620000004626650400883140244_);}
	.st18{fill:url(#SVGID_00000171683485873528500870000016858235532398440860_);}
	.st19{fill:url(#SVGID_00000095314281669568350680000016473503040739731631_);}
	.st20{fill:url(#SVGID_00000011712183943007423760000004089650117233509273_);}
	.st21{fill:url(#SVGID_00000162346483922600621810000010241743300419765405_);}
	.st22{fill:url(#SVGID_00000172417052605402885300000007832050794978455714_);}
	.st23{fill:#FFFFFF;}
	.st24{fill:url(#SVGID_00000118358225086500676890000007044483719472712878_);}
	.st25{fill:url(#SVGID_00000177476924664096026760000006707820520781024672_);}
	.st26{fill:url(#SVGID_00000005225076735633691110000011710005764361231031_);}
	.st27{fill:url(#SVGID_00000134248382376336696430000004571364951426515878_);}
	.st28{fill:url(#SVGID_00000021098521256131339740000006716006309574937788_);}
	.st29{fill:url(#SVGID_00000138555071621084663220000015767260656618659244_);}
	.st30{fill:url(#SVGID_00000108286013411260753760000002719636336039490433_);}
	.st31{fill:url(#SVGID_00000034084687132639753000000017174402842551674043_);}
	.st32{fill:url(#SVGID_00000039119338494525624740000018013709198373276849_);}
	.st33{fill:url(#SVGID_00000051350751855232329650000001779920134854855841_);}
	.st34{fill:url(#SVGID_00000119078110331842563470000014571150911834731658_);}
	.st35{fill:url(#SVGID_00000068646489163935343310000010381486755372089271_);}
	.st36{fill:url(#SVGID_00000016075972356326692700000016979433760792288396_);}
	.st37{fill:url(#SVGID_00000101823988623873215210000013805941188570530743_);}
	.st38{fill:url(#SVGID_00000183968315978202259540000011600886173637315736_);}
	.st39{fill:url(#SVGID_00000018933105187582420310000002644795157035121541_);}
	.st40{fill:url(#SVGID_00000095319898936481438310000007343752342466730146_);}
	.st41{fill:url(#SVGID_00000047020415325411382920000016207305381576105626_);}
	.st42{fill:url(#SVGID_00000170243484244328423110000009846838550099896708_);}
	.st43{fill:url(#SVGID_00000178168324469418622530000017707760880437891205_);}
	.st44{fill:url(#SVGID_00000108277160902561639750000012116388345066139817_);}
	.st45{fill:url(#SVGID_00000129192993312332939630000012767396000427292604_);}
	.st46{fill:url(#SVGID_00000176019011707760167750000004737027622387681964_);}
	.st47{fill:url(#SVGID_00000173152828303220135880000002304898801001094025_);}
	.st48{fill:url(#SVGID_00000098913720755464505840000017528441315244291241_);}
	.st49{fill:url(#SVGID_00000041991853462273927560000005249551440529901490_);}
	.st50{fill:url(#SVGID_00000055678225160360254940000000905552721733852860_);}
	.st51{fill:url(#SVGID_00000054245698105593457080000011568257292648560548_);}
</style>
<g id="Layer_2_00000001627154110747404030000005517277867201888150_">
	<g id="Layer_1-2">
		<g>
			<defs>
				<rect id="SVGID_1_" x="0.5" y="1.5" width="621.6" height="843.2"/>
			</defs>
			<clipPath id="SVGID_00000090268041149163116480000011941396026359564977_">
				<use xlink:href="#SVGID_1_"  style="overflow:visible;"/>
			</clipPath>
			<g style="clip-path:url(#SVGID_00000090268041149163116480000011941396026359564977_);">
				
					<linearGradient id="SVGID_00000116192927489404639430000003013842001273575847_" gradientUnits="userSpaceOnUse" x1="287.4793" y1="778.9828" x2="350.66" y2="778.9828" gradientTransform="matrix(1 0 0 -1 160.52 874.49)">
					<stop  offset="0" style="stop-color:#EED6D5"/>
					<stop  offset="1" style="stop-color:#BB5A56"/>
				</linearGradient>
				<path style="fill:url(#SVGID_00000116192927489404639430000003013842001273575847_);" d="M451.5,181.4c-2.3,0.4-3.9,2.6-3.5,5
					c0.4,2.3,2.6,3.9,5,3.5c2.3-0.4,3.9-2.6,3.5-5c-0.3-1.8-1.7-3.1-3.5-3.5v-26.1l58.2-58.2v-96h-1.5v95.4l-58.2,58.2V181.4z
					 M455,185.6c0,1.5-1.2,2.8-2.8,2.8c-1.5,0-2.8-1.2-2.8-2.8l0,0c0-1.2,0.8-2.3,2-2.6c0.2-0.1,0.5-0.1,0.7-0.1
					c0.3,0,0.5,0,0.8,0.1C454.2,183.3,455.1,184.4,455,185.6L455,185.6z"/>
				
					<linearGradient id="SVGID_00000155847590891672800650000012005135969382421123_" gradientUnits="userSpaceOnUse" x1="275.69" y1="706.0277" x2="307.0007" y2="706.0277" gradientTransform="matrix(1 0 0 -1 160.52 874.49)">
					<stop  offset="0" style="stop-color:#EED6D5"/>
					<stop  offset="1" style="stop-color:#BB5A56"/>
				</linearGradient>
				<path style="fill:url(#SVGID_00000155847590891672800650000012005135969382421123_);" d="M462.1,128.7c0.6,0.4,1.2,0.6,1.9,0.6
					c1.9,0,3.5-1.5,3.6-3.5c0-1.9-1.5-3.5-3.5-3.6c-1.9,0-3.5,1.5-3.6,3.5c0,0,0,0,0,0c0,0.7,0.2,1.3,0.6,1.9L439.8,149v57.2
					c-2.3,0.4-3.9,2.6-3.5,5c0.4,2.3,2.6,3.9,5,3.5c2.3-0.4,3.9-2.6,3.5-5c-0.3-1.8-1.7-3.1-3.5-3.5v-56.6L462.1,128.7z
					 M443.2,210.4c0,1.5-1.2,2.8-2.8,2.8s-2.8-1.2-2.8-2.8c0-1.2,0.8-2.3,2-2.6c0.2-0.1,0.5-0.1,0.7-0.1c0.3,0,0.5,0,0.8,0.1
					C442.4,208.1,443.3,209.1,443.2,210.4L443.2,210.4z"/>
				
					<linearGradient id="SVGID_00000149381530759750564810000000999015177474859171_" gradientUnits="userSpaceOnUse" x1="258.8693" y1="769.725" x2="340.6007" y2="769.725" gradientTransform="matrix(1 0 0 -1 160.52 874.49)">
					<stop  offset="0" style="stop-color:#EED6D5"/>
					<stop  offset="1" style="stop-color:#BB5A56"/>
				</linearGradient>
				<path style="fill:url(#SVGID_00000149381530759750564810000000999015177474859171_);" d="M481.9,107.3h-22.8l-36.2,36.2v34.4
					c-2.3,0.4-3.9,2.6-3.5,5c0.4,2.3,2.6,3.9,5,3.5c2.3-0.4,3.9-2.6,3.5-5c-0.3-1.8-1.7-3.1-3.5-3.5v-33.8l35.3-35.3h22.8l15.1-15.1
					V31.6c2.3-0.4,3.9-2.6,3.5-5c-0.4-2.3-2.6-3.9-5-3.5c-2.3,0.4-3.9,2.6-3.5,5c0.3,1.8,1.7,3.1,3.5,3.5v61.5L481.9,107.3z
					 M426.4,182.1c0,1.5-1.2,2.8-2.8,2.8c-1.5,0-2.8-1.2-2.8-2.8c0,0,0,0,0,0c0-1.2,0.8-2.3,2-2.7c0.2-0.1,0.5-0.1,0.8-0.1
					c0.3,0,0.5,0,0.7,0.1C425.6,179.8,426.4,180.9,426.4,182.1z M494,27.4c0-1.5,1.2-2.8,2.8-2.8s2.8,1.2,2.8,2.8l0,0
					c0,1.2-0.8,2.3-2,2.6c-0.2,0.1-0.5,0.1-0.7,0.1c-0.3,0-0.5,0-0.8-0.1C494.9,29.7,494,28.7,494,27.4z"/>
				
					<linearGradient id="SVGID_00000001622926521562551090000005612661933266936249_" gradientUnits="userSpaceOnUse" x1="-160" y1="669.09" x2="256.85" y2="669.09" gradientTransform="matrix(1 0 0 -1 0 840)">
					<stop  offset="0" style="stop-color:#D49895"/>
					<stop  offset="1" style="stop-color:#AA312C"/>
				</linearGradient>
				<polygon style="fill:url(#SVGID_00000001622926521562551090000005612661933266936249_);" points="148.7,193.5 148.7,76.2 
					256.9,-31.9 255.8,-33 147.2,75.6 147.2,192.9 -33.2,373.3 -160,373.3 -160,374.8 -32.6,374.8 				"/>
				
					<linearGradient id="SVGID_00000135670818331897192990000014568389719382705294_" gradientUnits="userSpaceOnUse" x1="7.72" y1="806.51" x2="106.31" y2="806.51" gradientTransform="matrix(1 0 0 -1 160.52 874.49)">
					<stop  offset="0" style="stop-color:#D49895"/>
					<stop  offset="1" style="stop-color:#AA312C"/>
				</linearGradient>
				<path style="fill:url(#SVGID_00000135670818331897192990000014568389719382705294_);" d="M168.2,148.3L237,79.5
					c1.7,1,3.8,0.5,4.8-1.2c1-1.7,0.5-3.8-1.2-4.8c-1.7-1-3.8-0.5-4.8,1.2c-0.7,1.2-0.7,2.7,0.1,3.8l-66.2,66.2V85.8l97.1-97.1
					l-1.1-1.1l-97.5,97.5V148.3z"/>
				
					<linearGradient id="SVGID_00000089551492008341975890000007762953833919106188_" gradientUnits="userSpaceOnUse" x1="116.48" y1="839.68" x2="271.8194" y2="839.68" gradientTransform="matrix(1 0 0 -1 160.52 874.49)">
					<stop  offset="0" style="stop-color:#D49895"/>
					<stop  offset="1" style="stop-color:#AA312C"/>
				</linearGradient>
				<path style="fill:url(#SVGID_00000089551492008341975890000007762953833919106188_);" d="M310.1,77.3L361,26.4h64.4
					c0.4,1.9,2.3,3.1,4.2,2.7c1.9-0.4,3.1-2.3,2.7-4.2c-0.4-1.9-2.3-3.1-4.2-2.7c-1.3,0.3-2.4,1.3-2.7,2.7h-65l-50.9,50.9h-28.9
					l82.4-82.4L362-7.7l-85,85L310.1,77.3z"/>
				
					<linearGradient id="SVGID_00000000209723730240557430000004250623296605324683_" gradientUnits="userSpaceOnUse" x1="140.4881" y1="812.245" x2="313.29" y2="812.245" gradientTransform="matrix(1 0 0 -1 160.52 874.49)">
					<stop  offset="0" style="stop-color:#D49895"/>
					<stop  offset="1" style="stop-color:#AA312C"/>
				</linearGradient>
				<path style="fill:url(#SVGID_00000000209723730240557430000004250623296605324683_);" d="M306.3,122.4c-0.5-0.3-1.2-0.5-1.8-0.5
					c-1.9,0-3.5,1.6-3.5,3.5c0,1.9,1.6,3.5,3.5,3.5c1.9,0,3.5-1.6,3.5-3.5c0-0.7-0.2-1.4-0.6-2l53.3-53.3h82.1l31-31V-4.4h-1.5v42.9
					l-30.1,30.1h-82.1L306.3,122.4z"/>
				
					<linearGradient id="SVGID_00000183946022129553519570000014723052916040416404_" gradientUnits="userSpaceOnUse" x1="-144.3026" y1="604.9098" x2="-143.5926" y2="699.7298" gradientTransform="matrix(1 0 0 -1 160.52 874.49)">
					<stop  offset="0" style="stop-color:#EED6D5"/>
					<stop  offset="1" style="stop-color:#AA312C"/>
				</linearGradient>
				<path style="fill:url(#SVGID_00000183946022129553519570000014723052916040416404_);" d="M28.9,259.2c-1.9,0.4-3.1,2.3-2.7,4.2
					c0.4,1.9,2.3,3.1,4.2,2.7c1.9-0.4,3.1-2.3,2.7-4.2c-0.3-1.3-1.3-2.4-2.7-2.7V123.7l18.5,18.4v39.7L38,192.7v32.5
					c-2.3,0.4-3.8,2.6-3.4,4.9c0.4,2.3,2.6,3.8,4.9,3.4c2.3-0.4,3.8-2.6,3.4-4.9c-0.3-1.7-1.7-3.1-3.4-3.4v-31.9l10.9-10.9v-40.9
					l-20-20V86l-44.8-44.9l-1.1,1.1l44.4,44.5V259.2z M41.5,229.4c0,1.5-1.2,2.8-2.8,2.8c-1.5,0-2.8-1.2-2.8-2.8
					c0-1.3,0.8-2.4,2-2.7c0.2-0.1,0.5-0.1,0.7-0.1c0.3,0,0.5,0,0.8,0.1C40.7,227.1,41.5,228.2,41.5,229.4z"/>
				
					<linearGradient id="SVGID_00000011747655857274187340000010090612033984874415_" gradientUnits="userSpaceOnUse" x1="-320.52" y1="505.0804" x2="28.1894" y2="505.0804" gradientTransform="matrix(1 0 0 -1 160.52 874.49)">
					<stop  offset="0" style="stop-color:#EED6D5"/>
					<stop  offset="1" style="stop-color:#AA312C"/>
				</linearGradient>
				<path style="fill:url(#SVGID_00000011747655857274187340000010090612033984874415_);" d="M74.6,322.8h107.2
					c0.4,1.9,2.3,3.1,4.2,2.7s3.1-2.3,2.7-4.2s-2.3-3.1-4.2-2.7c-1.3,0.3-2.4,1.3-2.7,2.7H74l-97.5,97.4H-160v1.5h137.2L74.6,322.8z
					"/>
				
					<linearGradient id="SVGID_00000030482895183760354880000005024330156993970819_" gradientUnits="userSpaceOnUse" x1="-52.81" y1="618.0604" x2="109.3099" y2="618.0604" gradientTransform="matrix(1 0 0 -1 160.52 874.49)">
					<stop  offset="0" style="stop-color:#D49895"/>
					<stop  offset="1" style="stop-color:#AA312C"/>
				</linearGradient>
				<path style="fill:url(#SVGID_00000030482895183760354880000005024330156993970819_);" d="M262.9,233.3c0.4,1.9,2.3,3.1,4.2,2.7
					c1.9-0.4,3.1-2.3,2.7-4.2s-2.3-3.1-4.2-2.7c-1.3,0.3-2.4,1.3-2.7,2.7h-19.1l-50.5,50.5h-81.9l41.6-41.6c1.6,1.1,3.8,0.6,4.9-1
					s0.6-3.8-1-4.9c-1.6-1.1-3.8-0.6-4.9,1c-0.4,0.6-0.6,1.2-0.6,1.9c0,0.7,0.2,1.3,0.5,1.8l-44.2,44.2h86.2l50.5-50.5H262.9z"/>
				
					<linearGradient id="SVGID_00000115509616442411223330000014436293466261689216_" gradientUnits="userSpaceOnUse" x1="8.5295" y1="620.8557" x2="117.5995" y2="630.8356" gradientTransform="matrix(1 0 0 -1 160.52 874.49)">
					<stop  offset="0" style="stop-color:#EED6D5"/>
					<stop  offset="1" style="stop-color:#BB5A56"/>
				</linearGradient>
				<path style="fill:url(#SVGID_00000115509616442411223330000014436293466261689216_);" d="M186.9,270.2l26.8-26.8l0,0
					c0.7,0.5,1.5,0.7,2.3,0.7c2.4,0,4.3-1.9,4.3-4.3c0-2.4-1.9-4.3-4.3-4.3s-4.3,1.9-4.3,4.3c0,0.9,0.3,1.8,0.8,2.6l-26.3,26.3
					h-41.3l25.9-25.9c1.9,1.4,4.6,1,6-0.9c0.5-0.7,0.8-1.6,0.8-2.5c0-2.4-1.9-4.3-4.3-4.3c-2.4,0-4.3,1.9-4.3,4.3
					c0,0.8,0.2,1.6,0.7,2.3l-28.5,28.5H186.9z M213.2,239.9c0-1.5,1.2-2.8,2.8-2.8s2.8,1.2,2.8,2.8s-1.2,2.8-2.8,2.8c0,0,0,0,0,0
					c-0.4,0-0.9-0.1-1.2-0.3c-0.5-0.2-0.8-0.6-1.1-1C213.3,240.9,213.2,240.4,213.2,239.9z M170.5,239.4c0-1.5,1.2-2.8,2.8-2.8
					s2.8,1.2,2.8,2.8c0,1.5-1.2,2.8-2.8,2.8c-0.5,0-1.1-0.1-1.5-0.4c-0.4-0.3-0.8-0.6-1-1.1C170.6,240.2,170.5,239.8,170.5,239.4z"
					/>
				
					<linearGradient id="SVGID_00000059293305118915909790000016448541375532107426_" gradientUnits="userSpaceOnUse" x1="-161.9195" y1="871.4054" x2="-109.6395" y2="763.0454" gradientTransform="matrix(1 0 0 -1 160.52 874.49)">
					<stop  offset="0" style="stop-color:#EED6D5"/>
					<stop  offset="1" style="stop-color:#AA312C"/>
				</linearGradient>
				<path style="fill:url(#SVGID_00000059293305118915909790000016448541375532107426_);" d="M50.3,96.6V73.5L25.6,48.8
					c1.1-1.6,0.6-3.8-1.1-4.9c-1.6-1.1-3.8-0.6-4.9,1.1c-1.1,1.6-0.6,3.8,1.1,4.9c1.2,0.7,2.7,0.7,3.8,0l24.3,24.2v22l-8.1,8.1V78.8
					L17.3,55.3c1-1.6,0.5-3.8-1.1-4.8s-3.8-0.5-4.8,1.1s-0.5,3.8,1.1,4.8c1.2,0.7,2.6,0.7,3.8,0l0,0l23,23v32.2
					c-2.3,0.4-3.9,2.6-3.5,5c0.4,2.3,2.6,3.9,5,3.5s3.9-2.6,3.5-5c-0.3-1.8-1.7-3.1-3.5-3.5v-5.3L50.3,96.6z M42.7,115.8
					c0,1.5-1.2,2.8-2.8,2.8s-2.8-1.2-2.8-2.8l0,0c0-1.2,0.8-2.3,2-2.7c0.2-0.1,0.5-0.1,0.8-0.1c0.3,0,0.5,0,0.7,0.1
					C41.9,113.5,42.7,114.6,42.7,115.8z"/>
				
					<linearGradient id="SVGID_00000082335970525253119380000015380708324006940091_" gradientUnits="userSpaceOnUse" x1="366.0193" y1="732.4951" x2="422.09" y2="732.4951" gradientTransform="matrix(1 0 0 -1 160.52 874.49)">
					<stop  offset="0" style="stop-color:#EED6D5"/>
					<stop  offset="1" style="stop-color:#BB5A56"/>
				</linearGradient>
				<path style="fill:url(#SVGID_00000082335970525253119380000015380708324006940091_);" d="M582.6,157.5V1.2h-1.5v155.7
					l-51.8,51.8v67.2c-1.9,0.4-3.1,2.3-2.7,4.2c0.4,1.9,2.3,3.1,4.2,2.7c1.9-0.4,3.1-2.3,2.7-4.2c-0.3-1.3-1.3-2.4-2.7-2.7v-66.6
					L582.6,157.5z"/>
				
					<linearGradient id="SVGID_00000123407656813591993410000006271958857870990505_" gradientUnits="userSpaceOnUse" x1="-320.51" y1="502.955" x2="146.48" y2="502.955" gradientTransform="matrix(1 0 0 -1 160.52 874.49)">
					<stop  offset="0" style="stop-color:#EED6D5"/>
					<stop  offset="1" style="stop-color:#AA312C"/>
				</linearGradient>
				<path style="fill:url(#SVGID_00000123407656813591993410000006271958857870990505_);" d="M302.7,271.5c-2.4,0-4.3,1.9-4.3,4.3
					c0,0,0,0,0,0c0,0.9,0.3,1.7,0.8,2.4l-93.6,93.6H92l-98.3,98.3H-160v1.5H-5.7l98.3-98.3h113.7l94.1-94c0.7,0.5,1.6,0.8,2.4,0.8
					c2.4,0,4.3-1.9,4.3-4.3C307,273.5,305.1,271.5,302.7,271.5L302.7,271.5z M304.3,278c-0.5,0.3-1,0.5-1.5,0.5
					c-0.5,0-0.9-0.1-1.3-0.4l0,0c-0.5-0.3-1-0.8-1.2-1.3c0,0,0,0,0-0.1c-0.1-0.3-0.2-0.7-0.2-1c0-0.5,0.2-1.1,0.5-1.5
					c0.2-0.3,0.4-0.5,0.7-0.7c0.9-0.6,2.2-0.6,3.1,0c0.2,0.1,0.3,0.2,0.4,0.3c0.5,0.5,0.8,1.2,0.8,1.9
					C305.5,276.7,305,277.6,304.3,278L304.3,278z"/>
				
					<linearGradient id="SVGID_00000181079556362132022240000000951166177951657856_" gradientUnits="userSpaceOnUse" x1="79.3004" y1="665.9872" x2="236.1704" y2="665.9872" gradientTransform="matrix(1 0 0 -1 160.52 874.49)">
					<stop  offset="0" style="stop-color:#EED6D5"/>
					<stop  offset="1" style="stop-color:#AA312C"/>
				</linearGradient>
				<path style="fill:url(#SVGID_00000181079556362132022240000000951166177951657856_);" d="M374,146.8l17.3-17.3
					c1.6,1.1,3.8,0.7,5-0.9c1.1-1.6,0.7-3.8-0.9-5c-1.6-1.1-3.8-0.7-5,0.9c-0.8,1.2-0.9,2.7-0.1,3.9l-17.8,17.7v70.1l-19,19h-56
					l-52.3,52.2c-1.6-1.1-3.8-0.6-4.9,1.1c-1.1,1.6-0.6,3.8,1.1,4.9c1.6,1.1,3.8,0.6,4.9-1.1c0.7-1.2,0.7-2.7,0-3.8l51.8-51.8h56
					l19.9-19.9L374,146.8z"/>
				
					<linearGradient id="SVGID_00000021839066947034819120000004534100099828967297_" gradientUnits="userSpaceOnUse" x1="-320.54" y1="413.3053" x2="30.8288" y2="413.3053" gradientTransform="matrix(1 0 0 -1 160.52 874.49)">
					<stop  offset="0" style="stop-color:#EED6D5"/>
					<stop  offset="1" style="stop-color:#AA312C"/>
				</linearGradient>
				<path style="fill:url(#SVGID_00000021839066947034819120000004534100099828967297_);" d="M77.1,425.3h107.3
					c0.2,1.9,1.8,3.3,3.7,3.2s3.3-1.8,3.2-3.7c-0.2-1.9-1.8-3.3-3.7-3.2c-1.3,0.1-2.5,1-3,2.2H76.5L1,499.3h-161v1.5H1.6L77.1,425.3
					z"/>
				
					<linearGradient id="SVGID_00000061466011841871553310000008244297220778549687_" gradientUnits="userSpaceOnUse" x1="-55.2643" y1="449.7" x2="89.08" y2="449.7" gradientTransform="matrix(1 0 0 -1 160.52 874.49)">
					<stop  offset="0" style="stop-color:#D49895"/>
					<stop  offset="1" style="stop-color:#AA312C"/>
				</linearGradient>
				<path style="fill:url(#SVGID_00000061466011841871553310000008244297220778549687_);" d="M113.7,396.3c-0.4-2.3-2.6-3.9-5-3.5
					s-3.9,2.6-3.5,5s2.6,3.9,5,3.5c1.8-0.3,3.1-1.7,3.5-3.5h132.2l-53.9,53.9h-32.5c-0.4-2.3-2.6-3.9-5-3.5s-3.9,2.6-3.5,5
					c0.4,2.3,2.6,3.9,5,3.5c1.8-0.3,3.1-1.7,3.5-3.5h33.2l56.9-56.9H113.7z M112.2,397.8c-0.3,1.2-1.4,2-2.6,2
					c-1.5,0-2.8-1.2-2.8-2.7c0-1.5,1.2-2.8,2.7-2.8c1.3,0,2.4,0.8,2.7,2c0.1,0.2,0.1,0.5,0.1,0.8
					C112.3,397.3,112.3,397.6,112.2,397.8z M157.9,453.2c-0.1,0.5-0.4,0.9-0.7,1.2c-0.1,0.1-0.2,0.2-0.3,0.3
					c-0.3,0.2-0.7,0.4-1.1,0.5c-0.2,0-0.3,0.1-0.5,0.1l0,0c-1.5,0-2.8-1.2-2.8-2.8c0-0.7,0.3-1.4,0.8-1.9c0.1-0.1,0.3-0.2,0.4-0.3
					c0.5-0.3,1-0.5,1.5-0.5l0,0c0.2,0,0.4,0,0.5,0.1c0.2,0,0.4,0.1,0.5,0.2c0.2,0.1,0.3,0.1,0.5,0.3c0.1,0.1,0.3,0.2,0.4,0.3
					c0.2,0.2,0.4,0.5,0.6,0.8c0.1,0.1,0.1,0.3,0.2,0.4c0.1,0.2,0.1,0.5,0.1,0.7C158,452.7,158,453,157.9,453.2z"/>
				
					<linearGradient id="SVGID_00000126316826327991001360000010268057492316279965_" gradientUnits="userSpaceOnUse" x1="71.8199" y1="537.69" x2="194.8843" y2="537.69" gradientTransform="matrix(1 0 0 -1 160.52 874.49)">
					<stop  offset="0" style="stop-color:#D49895"/>
					<stop  offset="1" style="stop-color:#AA312C"/>
				</linearGradient>
				<path style="fill:url(#SVGID_00000126316826327991001360000010268057492316279965_);" d="M316.7,301h30.2c0.4,2.3,2.6,3.9,5,3.5
					s3.9-2.6,3.5-5c-0.4-2.3-2.6-3.9-5-3.5c-1.8,0.3-3.1,1.7-3.5,3.5h-30.8l-25.7,25.7v20.4l-27.7,27.7h-23.3
					c-0.4-1.9-2.3-3.1-4.2-2.7c-1.9,0.4-3.1,2.3-2.7,4.2c0.4,1.9,2.3,3.1,4.2,2.7c1.4-0.3,2.4-1.3,2.7-2.7h24l48.5-48.6h19.7
					c0.4,2.3,2.6,3.9,5,3.5s3.9-2.6,3.5-5c-0.4-2.3-2.6-3.9-5-3.5c-1.8,0.3-3.1,1.7-3.5,3.5h-20.3l-19.3,19.3v-18.3L316.7,301z
					 M351.1,297.5c1.5,0,2.8,1.2,2.8,2.8c0,1.5-1.2,2.8-2.8,2.8c-1.2,0-2.3-0.8-2.6-2c-0.1-0.2-0.1-0.5-0.1-0.7
					c0-0.3,0.1-0.5,0.2-0.8C348.8,298.3,349.9,297.5,351.1,297.5z M335.7,322.8c1.5,0,2.8,1.2,2.8,2.8s-1.2,2.8-2.8,2.8
					c-1.2,0-2.3-0.8-2.7-2c-0.1-0.2-0.1-0.5-0.1-0.8c0-0.3,0-0.5,0.1-0.7C333.4,323.6,334.4,322.8,335.7,322.8L335.7,322.8z"/>
				
					<linearGradient id="SVGID_00000062892333874506519530000000888201089780894604_" gradientUnits="userSpaceOnUse" x1="-105.9296" y1="531.7505" x2="7.4043" y2="531.7505" gradientTransform="matrix(1 0 0 -1 160.52 874.49)">
					<stop  offset="0" style="stop-color:#EED6D5"/>
					<stop  offset="1" style="stop-color:#AA312C"/>
				</linearGradient>
				<path style="fill:url(#SVGID_00000062892333874506519530000000888201089780894604_);" d="M159.4,333.3c0.4,2.3,2.6,3.9,5,3.5
					s3.9-2.6,3.5-5c-0.4-2.3-2.6-3.9-5-3.5c-1.8,0.3-3.1,1.7-3.5,3.5H79L60,350.7c-1.6-1.1-3.8-0.6-4.9,1.1s-0.6,3.8,1.1,4.9
					c1.6,1.1,3.8,0.6,4.9-1.1c0.7-1.2,0.7-2.7,0-3.8l18.5-18.5H159.4z M163.6,329.8c1.5,0,2.8,1.2,2.8,2.8c0,1.5-1.2,2.8-2.8,2.8
					c-1.2,0-2.3-0.8-2.6-2c-0.1-0.2-0.1-0.5-0.1-0.8c0-0.3,0-0.5,0.1-0.7C161.3,330.6,162.4,329.8,163.6,329.8L163.6,329.8z"/>
				
					<linearGradient id="SVGID_00000107561098926370578250000005030641740779330985_" gradientUnits="userSpaceOnUse" x1="-216.44" y1="195.7198" x2="4.8796" y2="195.7198" gradientTransform="matrix(1 0 0 -1 160.52 874.49)">
					<stop  offset="0" style="stop-color:#EED6D5"/>
					<stop  offset="1" style="stop-color:#AA312C"/>
				</linearGradient>
				<path style="fill:url(#SVGID_00000107561098926370578250000005030641740779330985_);" d="M110.8,705.7V637l49.2-49.2
					c1.6,1.1,3.8,0.6,4.9-1.1c1.1-1.6,0.6-3.8-1.1-4.9c-1.6-1.1-3.8-0.6-4.9,1.1c-0.7,1.2-0.7,2.7,0,3.8l-49.6,49.6V705l-69.7,69.7
					h-95.6v1.5h96.2L110.8,705.7z"/>
				
					<linearGradient id="SVGID_00000054958441054316808550000002227822403419691918_" gradientUnits="userSpaceOnUse" x1="-112.81" y1="220.33" x2="-19.0284" y2="220.33" gradientTransform="matrix(1 0 0 -1 160.52 874.49)">
					<stop  offset="0" style="stop-color:#EED6D5"/>
					<stop  offset="1" style="stop-color:#AA312C"/>
				</linearGradient>
				<path style="fill:url(#SVGID_00000054958441054316808550000002227822403419691918_);" d="M89.3,626.5l45.5-45.5
					c0.7,0.5,1.6,0.8,2.4,0.8c2.3,0,4.2-1.9,4.2-4.3c0-2.3-1.9-4.2-4.3-4.2c-2.3,0-4.2,1.9-4.2,4.3c0,0.9,0.3,1.7,0.8,2.4l-46,46v68
					l-33.3,33.3c-0.7-0.5-1.6-0.8-2.4-0.8c-2.4,0-4.3,1.9-4.3,4.3c0,2.4,1.9,4.3,4.3,4.3c2.4,0,4.3-1.9,4.3-4.3
					c0-0.9-0.3-1.7-0.8-2.4l33.8-33.8V626.5z M134.5,577.5c0-1.5,1.2-2.8,2.8-2.8s2.8,1.2,2.8,2.8c0,1.5-1.2,2.8-2.8,2.8
					c-0.5,0-0.9-0.1-1.3-0.4c-0.4-0.2-0.8-0.6-1.1-1.1C134.6,578.4,134.5,578,134.5,577.5z M54.8,730.8c0,1.5-1.3,2.8-2.8,2.7
					c-1.5,0-2.8-1.3-2.7-2.8c0-1.5,1.2-2.7,2.8-2.7c0.5,0,0.9,0.1,1.3,0.4c0.5,0.2,0.8,0.6,1.1,1.1
					C54.6,729.8,54.8,730.3,54.8,730.8z"/>
				
					<linearGradient id="SVGID_00000066475328550873604860000002355182648583370658_" gradientUnits="userSpaceOnUse" x1="50.6293" y1="413.2827" x2="109.2788" y2="413.2827" gradientTransform="matrix(1 0 0 -1 160.52 874.49)">
					<stop  offset="0" style="stop-color:#D49895"/>
					<stop  offset="1" style="stop-color:#AA312C"/>
				</linearGradient>
				<path style="fill:url(#SVGID_00000066475328550873604860000002355182648583370658_);" d="M264.4,409.6c0.6,0.4,1.2,0.6,1.9,0.6
					c1.9,0,3.5-1.6,3.5-3.6c0-1.9-1.6-3.5-3.6-3.5c-1.9,0-3.5,1.6-3.5,3.6c0,0.7,0.2,1.3,0.6,1.9l-48.6,48.6v53.6
					c-2.3,0.4-3.9,2.6-3.5,5s2.6,3.9,5,3.5c2.3-0.4,3.9-2.6,3.5-5c-0.3-1.8-1.7-3.1-3.5-3.5v-53L264.4,409.6z M218.2,515
					c0,1.5-1.2,2.8-2.8,2.8c-1.5,0-2.8-1.2-2.8-2.8c0-1.2,0.8-2.3,2-2.6c0.2-0.1,0.5-0.1,0.8-0.1c0.3,0,0.5,0,0.7,0.1
					C217.4,512.7,218.2,513.8,218.2,515L218.2,515z"/>
				<path class="st23" d="M-29.5,720.7v1.5h61.3l37.1-37.1c0.7,0.5,1.6,0.8,2.4,0.8c2.4,0,4.3-1.9,4.3-4.3c0-2.4-1.9-4.3-4.3-4.3
					s-4.3,1.9-4.3,4.3c0,0.9,0.3,1.7,0.8,2.4l-36.7,36.7H-29.5z M68.6,681.6c0-1.5,1.2-2.8,2.8-2.8s2.8,1.2,2.8,2.8
					c0,1.5-1.2,2.8-2.8,2.8c-0.5,0-0.9-0.1-1.3-0.4c-0.5-0.2-0.8-0.6-1.1-1.1C68.7,682.5,68.6,682.1,68.6,681.6L68.6,681.6z"/>
				
					<linearGradient id="SVGID_00000023258115375536392960000011768437134938087828_" gradientUnits="userSpaceOnUse" x1="-179.37" y1="361.8404" x2="-53.2301" y2="361.8404" gradientTransform="matrix(1 0 0 -1 160.52 874.49)">
					<stop  offset="0" style="stop-color:#EED6D5"/>
					<stop  offset="1" style="stop-color:#AA312C"/>
				</linearGradient>
				<path style="fill:url(#SVGID_00000023258115375536392960000011768437134938087828_);" d="M20.6,539.6h-39.5v1.5h40.1l52.6-52.6
					h26.5c0.4,1.9,2.3,3.1,4.2,2.7s3.1-2.3,2.7-4.2s-2.3-3.1-4.2-2.7c-1.3,0.3-2.4,1.3-2.7,2.7H73.2L20.6,539.6z"/>
				
					<linearGradient id="SVGID_00000105412810604312094990000002275132651046555270_" gradientUnits="userSpaceOnUse" x1="-83.8043" y1="371.4103" x2="-18.28" y2="371.4103" gradientTransform="matrix(1 0 0 -1 160.52 874.49)">
					<stop  offset="0" style="stop-color:#EED6D5"/>
					<stop  offset="1" style="stop-color:#AA312C"/>
				</linearGradient>
				<path style="fill:url(#SVGID_00000105412810604312094990000002275132651046555270_);" d="M121.2,475.1h-36
					c-0.4-2.3-2.6-3.9-5-3.5s-3.9,2.6-3.5,5s2.6,3.9,5,3.5c1.8-0.3,3.1-1.7,3.5-3.5h35.4l19.6,19.6l-30.6,30.6
					c-0.7-0.4-1.4-0.7-2.2-0.7c-2.4,0-4.3,1.9-4.3,4.3c0,2.4,1.9,4.3,4.3,4.3c2.4,0,4.3-1.9,4.3-4.3c0,0,0,0,0,0
					c0-0.9-0.3-1.9-0.9-2.6l31.6-31.6L121.2,475.1z M80.9,478.6c-1.5,0-2.8-1.2-2.8-2.8c0-1.5,1.2-2.8,2.8-2.8c1.2,0,2.3,0.8,2.6,2
					c0.1,0.2,0.1,0.5,0.1,0.8c0,0.3,0,0.5-0.1,0.7C83.3,477.7,82.2,478.6,80.9,478.6z M110,530.3c0,1.5-1.2,2.8-2.8,2.8
					s-2.8-1.2-2.8-2.8c0-1.5,1.2-2.8,2.8-2.8c0,0,0,0,0,0c0.4,0,0.8,0.1,1.1,0.3c0.5,0.2,0.9,0.6,1.1,1
					C109.9,529.3,110.1,529.8,110,530.3z"/>
				
					<linearGradient id="SVGID_00000060015884682386519430000010593822645777519512_" gradientUnits="userSpaceOnUse" x1="-108.8107" y1="312.653" x2="-39.4894" y2="312.653" gradientTransform="matrix(1 0 0 -1 160.52 874.49)">
					<stop  offset="0" style="stop-color:#D49895"/>
					<stop  offset="1" style="stop-color:#AA312C"/>
				</linearGradient>
				<path style="fill:url(#SVGID_00000060015884682386519430000010593822645777519512_);" d="M90.6,562.9v-34.8l25-25.1
					c0.6,0.4,1.2,0.6,1.9,0.6c2,0,3.5-1.6,3.5-3.6c0-2-1.6-3.5-3.6-3.5c-2,0-3.5,1.6-3.5,3.6c0,0.7,0.2,1.3,0.6,1.9l0,0l-25.4,25.5
					v34.8l-33.9,33.9v22.6c-2.3,0.4-3.8,2.6-3.4,4.9s2.6,3.8,4.9,3.4c2.3-0.4,3.8-2.6,3.4-4.9c-0.3-1.7-1.7-3.1-3.4-3.4v-22
					L90.6,562.9z M58.7,622.9c0,1.5-1.2,2.8-2.8,2.8c-1.5,0-2.8-1.2-2.8-2.8c0-1.2,0.8-2.3,2-2.6c0.2-0.1,0.5-0.1,0.7-0.1
					c0.3,0,0.5,0,0.8,0.1C57.9,620.5,58.7,621.6,58.7,622.9L58.7,622.9z"/>
				
					<linearGradient id="SVGID_00000173843672358253113070000008640707548994194613_" gradientUnits="userSpaceOnUse" x1="-119.9907" y1="301.023" x2="-58.2" y2="301.023" gradientTransform="matrix(1 0 0 -1 160.52 874.49)">
					<stop  offset="0" style="stop-color:#D49895"/>
					<stop  offset="1" style="stop-color:#AA312C"/>
				</linearGradient>
				<path style="fill:url(#SVGID_00000173843672358253113070000008640707548994194613_);" d="M81.5,557.6v-35.7l14.1-14.1
					c0.7,0.5,1.6,0.8,2.4,0.8c2.4,0,4.3-1.9,4.3-4.3c0-2.4-1.9-4.3-4.3-4.3c-2.4,0-4.3,1.9-4.3,4.3c0,0.9,0.3,1.7,0.8,2.4L80,521.3
					V557l-36,36v45.5c-2.3,0.4-3.8,2.6-3.4,4.9s2.6,3.8,4.9,3.4c2.3-0.4,3.8-2.6,3.4-4.9c-0.3-1.7-1.7-3.1-3.4-3.4v-44.9L81.5,557.6
					z M95.3,504.3c0-1.5,1.3-2.8,2.8-2.8c1.5,0,2.8,1.3,2.8,2.8c0,1.5-1.2,2.8-2.8,2.8c-0.5,0-0.9-0.1-1.4-0.4
					c-0.4-0.2-0.8-0.6-1.1-1.1C95.4,505.3,95.3,504.8,95.3,504.3L95.3,504.3z M47.6,642.6c0,1.5-1.2,2.8-2.8,2.8
					c-1.5,0-2.8-1.2-2.8-2.8c0-1.2,0.8-2.3,2-2.6c0.2-0.1,0.5-0.1,0.7-0.1c0.3,0,0.5,0,0.8,0.1C46.7,640.3,47.6,641.4,47.6,642.6z"
					/>
				
					<linearGradient id="SVGID_00000107551153520928912040000014683881061486206375_" gradientUnits="userSpaceOnUse" x1="-149.2807" y1="851.1107" x2="-103.6357" y2="851.1107" gradientTransform="matrix(1 0 0 -1 160.52 874.49)">
					<stop  offset="0" style="stop-color:#D49895"/>
					<stop  offset="1" style="stop-color:#AA312C"/>
				</linearGradient>
				<path style="fill:url(#SVGID_00000107551153520928912040000014683881061486206375_);" d="M14,32.9c-1.9,0.4-3.1,2.3-2.7,4.2
					c0.4,1.9,2.3,3.1,4.2,2.7c1.9-0.4,3.1-2.3,2.7-4.2c-0.3-1.3-1.3-2.4-2.7-2.7V23l11-11h21.9c0.4,2.3,2.6,3.9,5,3.5
					c2.3-0.4,3.9-2.6,3.5-5c-0.4-2.3-2.6-3.9-5-3.5c-1.8,0.3-3.1,1.7-3.5,3.5H25.9L14,22.4V32.9z M52.6,8.5c1.5,0,2.8,1.2,2.8,2.8
					S54.1,14,52.6,14c-1.2,0-2.3-0.8-2.6-2c-0.1-0.2-0.1-0.5-0.1-0.8c0-0.3,0-0.5,0.1-0.8C50.3,9.3,51.4,8.5,52.6,8.5z"/>
				
					<linearGradient id="SVGID_00000183959843359440141650000015014258351016247718_" gradientUnits="userSpaceOnUse" x1="-216.43" y1="194.655" x2="71.0089" y2="194.655" gradientTransform="matrix(1 0 0 -1 160.52 874.49)">
					<stop  offset="0" style="stop-color:#EED6D5"/>
					<stop  offset="1" style="stop-color:#AA312C"/>
				</linearGradient>
				<path style="fill:url(#SVGID_00000183959843359440141650000015014258351016247718_);" d="M227.3,553c-2.4,0-4.3,1.9-4.3,4.3l0,0
					c0,0.9,0.3,1.7,0.8,2.4l-84.8,84.8V714l-91.2,91.2H-55.9v1.5H48.5l92-92.1v-69.5l84.3-84.3c1.9,1.3,4.6,0.9,5.9-1.1
					c1.3-1.9,0.9-4.6-1.1-5.9C229,553.3,228.1,553,227.3,553L227.3,553z M227.3,560c-0.5,0-0.9-0.1-1.3-0.4
					c-0.5-0.2-0.8-0.6-1.1-1.1c-0.3-0.4-0.4-0.9-0.4-1.3c0-1.5,1.2-2.8,2.8-2.8s2.8,1.2,2.8,2.8C230,558.8,228.8,560,227.3,560
					L227.3,560z"/>
				
					<linearGradient id="SVGID_00000077299891964746709110000017222302489319116695_" gradientUnits="userSpaceOnUse" x1="14.73" y1="716.9288" x2="127.1504" y2="716.9288" gradientTransform="matrix(1 0 0 -1 160.52 874.49)">
					<stop  offset="0" style="stop-color:#D49895"/>
					<stop  offset="1" style="stop-color:#AA312C"/>
				</linearGradient>
				<path style="fill:url(#SVGID_00000077299891964746709110000017222302489319116695_);" d="M175.2,209.6c0,2.4,1.9,4.3,4.3,4.3
					c2.4,0,4.3-1.9,4.3-4.3l0,0c0-0.9-0.3-1.7-0.8-2.5l99.4-99.4c1.7,1,3.8,0.4,4.8-1.3s0.4-3.8-1.3-4.8c-1.7-1-3.8-0.4-4.8,1.3
					c-0.3,0.5-0.5,1.2-0.5,1.8c0,0.7,0.2,1.4,0.6,2l0,0l-99.4,99.3c-0.7-0.5-1.6-0.8-2.4-0.8C177.2,205.4,175.2,207.3,175.2,209.6z
					 M181.9,208.3c0.2,0.4,0.4,0.9,0.4,1.4c0,1.5-1.3,2.8-2.8,2.7c-1.5,0-2.8-1.3-2.7-2.8c0-1.5,1.2-2.7,2.8-2.7
					C180.5,206.9,181.4,207.4,181.9,208.3z"/>
				
					<linearGradient id="SVGID_00000153665467301216691950000011600242082570079407_" gradientUnits="userSpaceOnUse" x1="154.2489" y1="731.9412" x2="55.1589" y2="637.8412" gradientTransform="matrix(1 0 0 -1 160.52 874.49)">
					<stop  offset="0" style="stop-color:#D49895"/>
					<stop  offset="1" style="stop-color:#AA312C"/>
				</linearGradient>
				<path style="fill:url(#SVGID_00000153665467301216691950000011600242082570079407_);" d="M282,144.3c2.4,0,4.3-1.9,4.3-4.3
					c0-2.4-1.9-4.3-4.3-4.3c-2.4,0-4.3,1.9-4.3,4.3c0,0.9,0.3,1.7,0.8,2.4L203,218h64.4c0.4,2.3,2.6,3.8,4.9,3.4s3.8-2.6,3.4-4.9
					c-0.4-2.3-2.6-3.8-4.9-3.4c-1.7,0.3-3.1,1.7-3.4,3.4h-60.8l73-73C280.3,144,281.1,144.3,282,144.3z M271.5,214.5
					c1.5,0,2.8,1.2,2.8,2.8c0,1.5-1.2,2.8-2.8,2.8c-1.2,0-2.3-0.8-2.6-2c-0.1-0.2-0.1-0.5-0.1-0.7c0-0.3,0-0.5,0.1-0.8
					C269.2,215.3,270.3,214.5,271.5,214.5z M279.2,140c0-1.5,1.2-2.8,2.8-2.8c1.5,0,2.8,1.2,2.8,2.8c0,1.5-1.2,2.8-2.8,2.8
					c-0.5,0-0.9-0.1-1.4-0.4C279.8,141.9,279.2,141,279.2,140z"/>
				
					<linearGradient id="SVGID_00000161593786908831627780000006644222420477561251_" gradientUnits="userSpaceOnUse" x1="287.9009" y1="798.3962" x2="122.0409" y2="705.7162" gradientTransform="matrix(1 0 0 -1 160.52 874.49)">
					<stop  offset="0" style="stop-color:#D49895"/>
					<stop  offset="1" style="stop-color:#AA312C"/>
				</linearGradient>
				<path style="fill:url(#SVGID_00000161593786908831627780000006644222420477561251_);" d="M471.6,67.3c0,0.9,0.3,1.7,0.8,2.4
					l-29,29h-74.3L310,157.9c-1.7-1-3.8-0.5-4.8,1.2c-1,1.7-0.5,3.8,1.2,4.8s3.8,0.5,4.8-1.2c0.7-1.2,0.7-2.7-0.1-3.8l58.7-58.7H444
					l29.4-29.4c0.7,0.5,1.6,0.8,2.5,0.8c2.4,0,4.3-1.9,4.2-4.3s-1.9-4.3-4.3-4.2C473.5,63,471.6,64.9,471.6,67.3L471.6,67.3z
					 M475.9,64.6c1.5,0,2.8,1.2,2.8,2.8s-1.2,2.8-2.8,2.8c-0.5,0-0.9-0.1-1.4-0.4c-0.9-0.5-1.4-1.4-1.4-2.4
					C473.1,65.8,474.4,64.6,475.9,64.6L475.9,64.6z"/>
				
					<linearGradient id="SVGID_00000165915853134326130430000011060816116804616635_" gradientUnits="userSpaceOnUse" x1="353.0141" y1="542.92" x2="354.4341" y2="817.3699" gradientTransform="matrix(1 0 0 -1 160.52 874.49)">
					<stop  offset="0" style="stop-color:#EED6D5"/>
					<stop  offset="1" style="stop-color:#AA312C"/>
				</linearGradient>
				<path style="fill:url(#SVGID_00000165915853134326130430000011060816116804616635_);" d="M508.5,320.7v-62.2l-13.3-13.3v-46.9
					l12.8-12.9v-8l33.9-33.9c0.7,0.5,1.6,0.8,2.4,0.8c2.4,0,4.3-1.9,4.3-4.3s-1.9-4.3-4.3-4.3s-4.3,1.9-4.3,4.3c0,0,0,0,0,0
					c0,0.9,0.3,1.7,0.8,2.4l-9.4,9.4v-17.3l21.7-21.7V58.7l-10.9-10.9V1.2h-1.5v105.8l-62,62v143c-2.3,0.4-3.9,2.6-3.5,5
					c0.4,2.3,2.6,3.9,5,3.5s3.9-2.6,3.5-5c-0.3-1.8-1.7-3.1-3.5-3.5V169.6l62-62V49.9l9.4,9.4v53l-21.7,21.7v19.4l0,0l-23.4,23.4
					v8.1l-11.3,11.3v-22.6l17.5-17.5c0.7,0.5,1.6,0.8,2.4,0.8c2.4,0,4.3-1.9,4.3-4.3s-1.9-4.3-4.3-4.3c-2.4,0-4.3,1.9-4.3,4.3
					c0,0.9,0.3,1.7,0.8,2.4L493.7,173v72.9l13.3,13.3v61.5c-2.3,0.4-3.8,2.6-3.4,4.9c0.4,2.3,2.6,3.8,4.9,3.4
					c2.3-0.4,3.8-2.6,3.4-4.9C511.6,322.4,510.2,321,508.5,320.7L508.5,320.7z M541.5,140.1c0-1.5,1.2-2.8,2.8-2.8
					c1.5,0,2.8,1.2,2.8,2.8c0,1.5-1.2,2.8-2.8,2.8c0,0,0,0,0,0c-0.5,0-0.9-0.1-1.3-0.4c-0.4-0.2-0.8-0.6-1.1-1.1
					C541.6,141,541.5,140.5,541.5,140.1z M482.2,316.1c0,1.5-1.2,2.8-2.8,2.8c-1.5,0-2.8-1.2-2.8-2.8c0-1.2,0.8-2.3,2-2.7
					c0.2-0.1,0.5-0.1,0.8-0.1c0.3,0,0.5,0,0.7,0.1C481.4,313.8,482.2,314.9,482.2,316.1z M512.3,152.6c0-1.5,1.3-2.8,2.8-2.7
					c1.5,0,2.8,1.3,2.7,2.8c0,1.5-1.2,2.7-2.8,2.7C513.6,155.4,512.3,154.2,512.3,152.6z M507.7,327.6c-1.5,0-2.8-1.3-2.7-2.8
					c0-1.2,0.8-2.3,2-2.6c0.2-0.1,0.5-0.1,0.7-0.1c0.3,0,0.5,0,0.8,0.1c1.5,0.4,2.3,2,1.8,3.4C510,326.8,508.9,327.6,507.7,327.6
					L507.7,327.6z"/>
				
					<linearGradient id="SVGID_00000050651572874615552920000000282178781229782163_" gradientUnits="userSpaceOnUse" x1="325.15" y1="568.6027" x2="341.03" y2="568.6027" gradientTransform="matrix(1 0 0 -1 160.52 874.49)">
					<stop  offset="0" style="stop-color:#EED6D5"/>
					<stop  offset="1" style="stop-color:#AA312C"/>
				</linearGradient>
				<path style="fill:url(#SVGID_00000050651572874615552920000000282178781229782163_);" d="M498,344v-73.5l-5.9-5.9
					c1-1.6,0.5-3.8-1.1-4.8s-3.8-0.5-4.8,1.1c-1,1.6-0.5,3.8,1.1,4.8c1.2,0.7,2.6,0.7,3.8,0l0,0l5.4,5.4V344c-2.3,0.4-3.9,2.6-3.5,5
					c0.4,2.3,2.6,3.9,5,3.5s3.9-2.6,3.5-5C501.2,345.7,499.8,344.4,498,344L498,344z M497.3,351c-1.5,0-2.8-1.2-2.8-2.8c0,0,0,0,0,0
					c0-1.2,0.8-2.3,2-2.6c0.2-0.1,0.5-0.1,0.8-0.1c0.3,0,0.5,0,0.7,0.1c1.2,0.3,2,1.4,2,2.6C500,349.7,498.8,351,497.3,351
					L497.3,351z"/>
				
					<linearGradient id="SVGID_00000062159471335514617380000008515123890919578290_" gradientUnits="userSpaceOnUse" x1="-48.8496" y1="826.4" x2="-48.8496" y2="652.08" gradientTransform="matrix(1 0 0 -1 160.52 874.49)">
					<stop  offset="0" style="stop-color:#EED6D5"/>
					<stop  offset="1" style="stop-color:#AA312C"/>
				</linearGradient>
				<path style="fill:url(#SVGID_00000062159471335514617380000008515123890919578290_);" d="M111.7,166.7c2.4,0,4.3-2,4.2-4.3
					c0-2-1.5-3.8-3.5-4.1v-184H111v184c-2.3,0.4-3.9,2.6-3.5,4.9C107.8,165.2,109.6,166.7,111.7,166.7z M111,159.7
					c0.2-0.1,0.5-0.1,0.7-0.1c0.3,0,0.5,0,0.8,0.1c1.2,0.3,2,1.4,2,2.6c0,1.5-1.2,2.8-2.8,2.8c-1.5,0-2.8-1.2-2.8-2.8c0,0,0,0,0,0
					C108.9,161.1,109.8,160.1,111,159.7z"/>
				
					<linearGradient id="SVGID_00000072986876392682539570000005794943596977910914_" gradientUnits="userSpaceOnUse" x1="-66.0104" y1="826.4" x2="-66.0104" y2="652.08" gradientTransform="matrix(1 0 0 -1 160.52 874.49)">
					<stop  offset="0" style="stop-color:#EED6D5"/>
					<stop  offset="1" style="stop-color:#AA312C"/>
				</linearGradient>
				<path style="fill:url(#SVGID_00000072986876392682539570000005794943596977910914_);" d="M88.5,27.3v39.9l14,14v52.3l-9.5,9.4
					v78.4c-2.3,0.4-3.9,2.6-3.5,5c0.4,2.3,2.6,3.9,5,3.5c2.3-0.4,3.9-2.6,3.5-5c-0.3-1.8-1.7-3.1-3.5-3.5v-77.8l9.5-9.4V80.6l-14-14
					V27.3c2.3-0.4,3.9-2.6,3.5-5c-0.4-2.3-2.6-3.9-5-3.5c-2.3,0.4-3.9,2.6-3.5,5C85.4,25.6,86.8,27,88.5,27.3z M96.5,225.6
					c0,1.5-1.2,2.8-2.8,2.8s-2.8-1.2-2.8-2.8c0-1.2,0.8-2.3,2-2.7c0.2-0.1,0.5-0.1,0.8-0.1c0.3,0,0.5,0,0.7,0.1
					C95.7,223.3,96.5,224.4,96.5,225.6z M89.3,20.4c1.5,0,2.8,1.2,2.8,2.8c0,1.2-0.8,2.3-2,2.6c-0.2,0.1-0.5,0.1-0.7,0.1
					c-0.3,0-0.5,0-0.8-0.1c-1.2-0.3-2-1.4-2-2.6C86.5,21.6,87.7,20.4,89.3,20.4z"/>
				
					<linearGradient id="SVGID_00000024700268522288845080000017769391058155697284_" gradientUnits="userSpaceOnUse" x1="-157.01" y1="853.9099" x2="-137.0587" y2="853.9099" gradientTransform="matrix(1 0 0 -1 160.52 874.49)">
					<stop  offset="0" style="stop-color:#D49895"/>
					<stop  offset="1" style="stop-color:#AA312C"/>
				</linearGradient>
				<path style="fill:url(#SVGID_00000024700268522288845080000017769391058155697284_);" d="M7,36.9c1.9,0,3.5-1.5,3.5-3.5
					c0-1.6-1.1-3-2.7-3.4V21l10.4-10.4c0.6,0.4,1.2,0.6,1.9,0.6c1.9,0,3.4-1.6,3.4-3.5c0-1.9-1.6-3.4-3.5-3.4
					c-1.9,0-3.4,1.6-3.4,3.5c0,0.6,0.2,1.3,0.5,1.8L6.2,20.4v9.7c-1.9,0.4-3,2.3-2.6,4.1C3.9,35.8,5.3,36.9,7,36.9z M17.8,7.7
					c0-1.2,1-2.3,2.2-2.3c1.2,0,2.3,1,2.3,2.2c0,1.2-1,2.3-2.2,2.3c-0.3,0-0.7-0.1-1-0.2c-0.5-0.2-0.8-0.6-1.1-1.1
					C17.8,8.3,17.8,8,17.8,7.7z M6.2,31.4c0.2-0.1,0.5-0.1,0.8-0.1c0.3,0,0.5,0,0.7,0.1c0.9,0.3,1.5,1.2,1.5,2.1
					c0,1.2-1,2.2-2.2,2.2c-1.2,0-2.2-1-2.2-2.2C4.7,32.6,5.3,31.7,6.2,31.4L6.2,31.4z"/>
				
					<linearGradient id="SVGID_00000108992377899265313500000008852330030778217621_" gradientUnits="userSpaceOnUse" x1="41.13" y1="825.86" x2="161.366" y2="825.86" gradientTransform="matrix(1 0 0 -1 160.52 874.49)">
					<stop  offset="0" style="stop-color:#D49895"/>
					<stop  offset="1" style="stop-color:#AA312C"/>
				</linearGradient>
				<path style="fill:url(#SVGID_00000108992377899265313500000008852330030778217621_);" d="M317.6,17.5c-2.1,0-3.8,1.5-4.2,3.5
					h-54.1l-51,51c-0.7-0.5-1.6-0.8-2.4-0.8c-2.4,0-4.3,1.9-4.3,4.3c0,2.4,1.9,4.3,4.3,4.3c2.4,0,4.3-1.9,4.3-4.3c0,0,0,0,0,0
					c0-0.9-0.3-1.7-0.8-2.4L260,22.5h53.5c0.4,2.3,2.6,3.9,4.9,3.5s3.9-2.6,3.5-4.9C321.5,19,319.7,17.5,317.6,17.5L317.6,17.5z
					 M208.7,75.5c0,1.5-1.2,2.8-2.8,2.8c-1.5,0-2.8-1.2-2.8-2.8s1.2-2.8,2.8-2.8c0,0,0,0,0,0c0.5,0,0.9,0.1,1.3,0.4
					c0.5,0.2,0.8,0.6,1.1,1.1C208.6,74.5,208.7,75,208.7,75.5L208.7,75.5z M317.6,24.5c-1.2,0-2.3-0.8-2.6-2
					c-0.1-0.2-0.1-0.5-0.1-0.7c0-0.3,0-0.5,0.1-0.8c0.3-1.2,1.4-2,2.6-2c1.5,0,2.8,1.2,2.8,2.8S319.2,24.5,317.6,24.5L317.6,24.5z"
					/>
				
					<linearGradient id="SVGID_00000160182651822485849550000009525996207596702601_" gradientUnits="userSpaceOnUse" x1="20.4089" y1="743.4" x2="104.29" y2="743.4" gradientTransform="matrix(1 0 0 -1 160.52 874.49)">
					<stop  offset="0" style="stop-color:#D49895"/>
					<stop  offset="1" style="stop-color:#AA312C"/>
				</linearGradient>
				<path style="fill:url(#SVGID_00000160182651822485849550000009525996207596702601_);" d="M185.2,164.5c-2.4,0-4.3,1.9-4.3,4.3
					s1.9,4.3,4.3,4.3c2.4,0,4.3-1.9,4.3-4.3c0-0.9-0.3-1.7-0.8-2.4l69.4-69.4l0,0c0.7,0.5,1.6,0.8,2.4,0.8c2.4,0,4.3-1.9,4.3-4.3
					c0-2.4-1.9-4.3-4.3-4.3c-2.4,0-4.3,1.9-4.3,4.3c0,0,0,0,0,0c0,0.9,0.3,1.7,0.8,2.4l-69.4,69.4
					C186.9,164.8,186.1,164.5,185.2,164.5z M257.8,93.4c0-1.5,1.2-2.8,2.8-2.8c1.5,0,2.8,1.2,2.8,2.8s-1.2,2.8-2.8,2.8
					c-0.5,0-0.9-0.1-1.3-0.4c-0.5-0.2-0.8-0.6-1.1-1.1C257.9,94.3,257.8,93.9,257.8,93.4L257.8,93.4z M188,168.8
					c0,1.5-1.3,2.8-2.8,2.7c-1.5,0-2.8-1.3-2.7-2.8c0-1.5,1.2-2.7,2.8-2.7c0.5,0,0.9,0.1,1.3,0.4c0.5,0.2,0.8,0.6,1.1,1.1
					C187.9,167.8,188,168.3,188,168.8L188,168.8z"/>
				
					<linearGradient id="SVGID_00000065796633369530750160000004687102722097745046_" gradientUnits="userSpaceOnUse" x1="284.195" y1="524.38" x2="284.195" y2="678.36" gradientTransform="matrix(1 0 0 -1 160.52 874.49)">
					<stop  offset="0" style="stop-color:#EED6D5"/>
					<stop  offset="1" style="stop-color:#BB5A56"/>
				</linearGradient>
				<path style="fill:url(#SVGID_00000065796633369530750160000004687102722097745046_);" d="M467.2,336.9v-54.1L453,268.5v-26.9
					c2.3-0.4,3.9-2.6,3.5-5c-0.4-2.3-2.6-3.9-5-3.5c-2.3,0.4-3.9,2.6-3.5,5c0.3,1.8,1.7,3.1,3.5,3.5v27.5l14.2,14.2v16.9l-24.6-24.6
					V242l-16.7-16.7v-20.2c2.3-0.4,3.8-2.6,3.4-4.9c-0.4-2.3-2.6-3.8-4.9-3.4c-2.3,0.4-3.8,2.6-3.4,4.9c0.3,1.7,1.7,3.1,3.4,3.4
					v20.8l16.7,16.7v33.7l26.1,26.1v34.5c-1.9,0.4-3.1,2.3-2.7,4.2c0.4,1.9,2.3,3.1,4.2,2.7c1.9-0.4,3.1-2.3,2.7-4.2
					C469.6,338.2,468.6,337.2,467.2,336.9L467.2,336.9z M449.5,237.5c0-1.5,1.2-2.8,2.8-2.8c1.5,0,2.8,1.2,2.8,2.8
					c0,1.2-0.8,2.3-2,2.6c-0.3,0.1-0.5,0.1-0.8,0.1c-0.2,0-0.5,0-0.7-0.1C450.4,239.8,449.5,238.7,449.5,237.5z M421,200.9
					c0-1.5,1.2-2.8,2.8-2.8c1.5,0,2.8,1.2,2.8,2.8c0,1.2-0.8,2.3-2,2.6c-0.2,0.1-0.5,0.1-0.7,0.1c-0.3,0-0.5,0-0.8-0.1
					C421.8,203.2,420.9,202.1,421,200.9L421,200.9z"/>
				
					<linearGradient id="SVGID_00000027600306067010360620000010494476086289225910_" gradientUnits="userSpaceOnUse" x1="234.1898" y1="488.17" x2="233.7098" y2="626.46" gradientTransform="matrix(1 0 0 -1 160.52 874.49)">
					<stop  offset="0" style="stop-color:#D49895"/>
					<stop  offset="1" style="stop-color:#AA312C"/>
				</linearGradient>
				<path style="fill:url(#SVGID_00000027600306067010360620000010494476086289225910_);" d="M415.1,381.8v-47.7l-39-39V262
					c2.3-0.4,3.8-2.6,3.4-4.9c-0.4-2.3-2.6-3.8-4.9-3.4c-2.3,0.4-3.8,2.6-3.4,4.9c0.3,1.7,1.7,3.1,3.4,3.4v33.7l39,39v47.1
					c-1.9,0.4-3.1,2.3-2.7,4.2c0.4,1.9,2.3,3.1,4.2,2.7c1.9-0.4,3.1-2.3,2.7-4.2C417.5,383.2,416.4,382.1,415.1,381.8L415.1,381.8z
					 M372.6,257.8c0-1.5,1.2-2.8,2.8-2.8c1.5,0,2.8,1.2,2.8,2.8c0,0,0,0,0,0c0,1.2-0.8,2.3-2,2.6c-0.2,0.1-0.5,0.1-0.7,0.1
					c-0.3,0-0.5,0-0.8-0.1C373.4,260.2,372.6,259.1,372.6,257.8L372.6,257.8z"/>
				
					<linearGradient id="SVGID_00000180354308532375928460000017108331581301706156_" gradientUnits="userSpaceOnUse" x1="109" y1="871.96" x2="160.6313" y2="871.96" gradientTransform="matrix(1 0 0 -1 160.52 874.49)">
					<stop  offset="0" style="stop-color:#D49895"/>
					<stop  offset="1" style="stop-color:#AA312C"/>
				</linearGradient>
				<path style="fill:url(#SVGID_00000180354308532375928460000017108331581301706156_);" d="M317.6,12.8c1.9,0,3.5-1.6,3.5-3.5
					c0-1.9-1.6-3.5-3.5-3.5c-1.7,0-3.1,1.2-3.5,2.8h-41.1l15.1-15.1l-1.1-1.1L269.5,10h44.7C314.6,11.6,316,12.7,317.6,12.8z"/>
				
					<linearGradient id="SVGID_00000074418170642629545040000008966674595236083384_" gradientUnits="userSpaceOnUse" x1="302.4193" y1="738.2302" x2="370.2107" y2="738.2302" gradientTransform="matrix(1 0 0 -1 160.52 874.49)">
					<stop  offset="0" style="stop-color:#EED6D5"/>
					<stop  offset="1" style="stop-color:#AA312C"/>
				</linearGradient>
				<path style="fill:url(#SVGID_00000074418170642629545040000008966674595236083384_);" d="M467.2,219.3v-55.2l60.8-60.8V53.2
					c1.9-0.4,3.1-2.3,2.7-4.2c-0.4-1.9-2.3-3.1-4.2-2.7c-1.9,0.4-3.1,2.3-2.7,4.2c0.3,1.3,1.3,2.4,2.7,2.7v49.5l-60.8,60.8v55.9
					c-1.9,0.4-3.1,2.3-2.7,4.2c0.4,1.9,2.3,3.1,4.2,2.7c1.9-0.4,3.1-2.3,2.7-4.2C469.6,220.7,468.5,219.7,467.2,219.3L467.2,219.3z"
					/>
				
					<linearGradient id="SVGID_00000178925943294396847170000010591952032998105750_" gradientUnits="userSpaceOnUse" x1="-90.3358" y1="648.9" x2="-90.3358" y2="905.53" gradientTransform="matrix(1 0 0 -1 160.52 874.49)">
					<stop  offset="0" style="stop-color:#D49895"/>
					<stop  offset="1" style="stop-color:#AA312C"/>
				</linearGradient>
				<path style="fill:url(#SVGID_00000178925943294396847170000010591952032998105750_);" d="M70.3,222.3c1.9,0,3.5-1.6,3.5-3.5
					c0-1.6-1-3-2.5-3.4V-25.8h-1.5v241.1c-1.9,0.2-3.4,1.9-3.2,3.8C66.8,221,68.4,222.4,70.3,222.3L70.3,222.3z"/>
				
					<linearGradient id="SVGID_00000150814192764942584020000005060996550376835215_" gradientUnits="userSpaceOnUse" x1="-34.4043" y1="548.6154" x2="73.23" y2="548.6154" gradientTransform="matrix(1 0 0 -1 160.52 874.49)">
					<stop  offset="0" style="stop-color:#EED6D5"/>
					<stop  offset="1" style="stop-color:#AA312C"/>
				</linearGradient>
				<path style="fill:url(#SVGID_00000150814192764942584020000005060996550376835215_);" d="M162.8,350.1c1.7,0,3.1-1.2,3.4-2.8
					h25.4l42.2-42.2h-99.2c-0.4-2.3-2.6-3.9-5-3.5c-2.3,0.4-3.9,2.6-3.5,5s2.6,3.9,5,3.5c1.8-0.3,3.1-1.7,3.5-3.5h95.5L191,345.8
					h-24.8c-0.4-1.9-2.3-3.1-4.2-2.7s-3.1,2.3-2.7,4.2C159.7,349,161.1,350.1,162.8,350.1L162.8,350.1z M130.4,308.7
					c-1.5,0-2.8-1.2-2.8-2.8c0-1.5,1.2-2.8,2.8-2.8c1.2,0,2.3,0.8,2.7,2c0.1,0.2,0.1,0.5,0.1,0.8c0,0.3,0,0.5-0.1,0.7
					C132.7,307.8,131.6,308.7,130.4,308.7L130.4,308.7z"/>
				
					<linearGradient id="SVGID_00000183233599387843076430000006136663095814194310_" gradientUnits="userSpaceOnUse" x1="-190.06" y1="281.195" x2="15.2" y2="281.195" gradientTransform="matrix(1 0 0 -1 160.52 874.49)">
					<stop  offset="0" style="stop-color:#D49895"/>
					<stop  offset="1" style="stop-color:#AA312C"/>
				</linearGradient>
				<path style="fill:url(#SVGID_00000183233599387843076430000006136663095814194310_);" d="M172.2,508.4c1.9,0,3.5-1.6,3.5-3.5
					c0-1.9-1.6-3.5-3.5-3.5c-1.9,0-3.5,1.6-3.5,3.5c0,0,0,0,0,0c0,0.5,0.1,1.1,0.4,1.5L66.5,609v36.2l-38.6,38.6h-57.5v1.5h58.1
					L68,645.8v-36.2l102-102C170.6,508.1,171.4,508.4,172.2,508.4z"/>
				
					<linearGradient id="SVGID_00000005986156978191746390000010806703295502044820_" gradientUnits="userSpaceOnUse" x1="130.38" y1="476.69" x2="197.1897" y2="476.69" gradientTransform="matrix(1 0 0 -1 160.52 874.49)">
					<stop  offset="0" style="stop-color:#D49895"/>
					<stop  offset="1" style="stop-color:#AA312C"/>
				</linearGradient>
				<path style="fill:url(#SVGID_00000005986156978191746390000010806703295502044820_);" d="M354.2,384.1c-1.6,0-3.1,1.1-3.4,2.8
					h-36.3l-16.9,16.9c-0.7-0.5-1.6-0.8-2.4-0.8c-2.4,0-4.3,1.9-4.3,4.3c0,2.4,1.9,4.3,4.3,4.3c2.4,0,4.3-1.9,4.3-4.3
					c0-0.9-0.3-1.7-0.8-2.4l16.5-16.5h35.6c0.4,1.9,2.3,3.1,4.2,2.7c1.9-0.4,3.1-2.3,2.7-4.2C357.3,385.2,355.9,384.1,354.2,384.1
					L354.2,384.1z M297.9,407.3c0,1.5-1.2,2.8-2.8,2.8c-1.5,0-2.8-1.2-2.8-2.8c0-1.5,1.2-2.8,2.8-2.8c0.5,0,0.9,0.1,1.3,0.4
					c0.4,0.2,0.8,0.6,1.1,1.1C297.8,406.3,297.9,406.8,297.9,407.3z"/>
				
					<linearGradient id="SVGID_00000054248723415544321820000006755091912407886995_" gradientUnits="userSpaceOnUse" x1="-119.97" y1="383.94" x2="77.98" y2="383.94" gradientTransform="matrix(1 0 0 -1 160.52 874.49)">
					<stop  offset="0" style="stop-color:#D49895"/>
					<stop  offset="1" style="stop-color:#AA312C"/>
				</linearGradient>
				<path style="fill:url(#SVGID_00000054248723415544321820000006755091912407886995_);" d="M192.9,483.9c2.4,0,4.3-1.9,4.3-4.3
					s-1.9-4.3-4.3-4.3c-2,0-3.8,1.4-4.2,3.4h-44.1l-25.5-25.5H86.8l-73.2,73.2h-32.5v1.5h33.1l73.2-73.2h31l25.5,25.5h44.7
					C189,482.3,190.8,483.9,192.9,483.9z M192.9,476.9c1.5,0,2.8,1.2,2.8,2.8c0,1.5-1.2,2.8-2.8,2.8c-1.3,0-2.4-0.9-2.7-2.1
					c-0.1-0.2-0.1-0.4-0.1-0.6c0-0.3,0-0.6,0.2-0.9C190.6,477.6,191.7,476.8,192.9,476.9L192.9,476.9z"/>
				
					<linearGradient id="SVGID_00000069388796878045195650000012080540793506312608_" gradientUnits="userSpaceOnUse" x1="121.01" y1="515.72" x2="219.106" y2="515.72" gradientTransform="matrix(1 0 0 -1 160.52 874.49)">
					<stop  offset="0" style="stop-color:#D49895"/>
					<stop  offset="1" style="stop-color:#AA312C"/>
				</linearGradient>
				<path style="fill:url(#SVGID_00000069388796878045195650000012080540793506312608_);" d="M375.4,339.2c-2.1,0-3.8,1.5-4.2,3.5
					h-55.1l-27.9,27.9c-0.7-0.5-1.6-0.8-2.4-0.8c-2.4,0-4.3,1.9-4.3,4.3s1.9,4.3,4.3,4.3c2.4,0,4.3-1.9,4.3-4.3
					c0-0.9-0.3-1.7-0.8-2.4l27.4-27.4h54.5c0.4,2.3,2.6,3.9,4.9,3.5s3.9-2.6,3.5-4.9C379.2,340.7,377.4,339.2,375.4,339.2
					L375.4,339.2z M288.5,374.1c0,1.5-1.2,2.8-2.8,2.8c-1.5,0-2.8-1.2-2.8-2.8c0-1.5,1.2-2.8,2.8-2.8c0,0,0,0,0,0
					c0.5,0,0.9,0.1,1.3,0.4c0.4,0.2,0.8,0.6,1.1,1.1C288.4,373.1,288.5,373.6,288.5,374.1z M375.3,346.2c-1.2,0-2.3-0.8-2.6-2
					c-0.1-0.2-0.1-0.5-0.1-0.7c0-0.3,0-0.5,0.1-0.8c0.3-1.2,1.4-2,2.6-2c1.5,0,2.8,1.2,2.8,2.8C378.1,345,376.9,346.3,375.3,346.2
					L375.3,346.2z"/>
				
					<linearGradient id="SVGID_00000020389302788934900070000014425251093249117061_" gradientUnits="userSpaceOnUse" x1="28.0893" y1="396.195" x2="186.3278" y2="396.195" gradientTransform="matrix(1 0 0 -1 160.52 874.49)">
					<stop  offset="0" style="stop-color:#D49895"/>
					<stop  offset="1" style="stop-color:#AA312C"/>
				</linearGradient>
				<path style="fill:url(#SVGID_00000020389302788934900070000014425251093249117061_);" d="M342.6,397.5c-2.1,0-3.8,1.5-4.2,3.5
					h-16.7L287,435.6h-21.3l13-13c1.6,1,3.8,0.6,4.8-1.1c1-1.6,0.6-3.8-1.1-4.8c-1.6-1-3.8-0.6-4.8,1.1c-0.4,0.6-0.5,1.2-0.6,1.8
					c0,0.7,0.2,1.3,0.6,1.9L237.2,462v49.8l-43.6,43.7V505c2.3-0.4,3.9-2.6,3.5-5s-2.6-3.9-5-3.5s-3.9,2.6-3.5,5
					c0.3,1.8,1.7,3.1,3.5,3.5v54.1l46.6-46.6v-49.9l25.5-25.5h23.4l34.6-34.6h16.1c0.4,2.3,2.6,3.9,4.9,3.5c2.3-0.4,3.9-2.6,3.5-4.9
					C346.4,399,344.6,397.5,342.6,397.5z M190.1,500.8c0-1.5,1.2-2.8,2.7-2.8s2.8,1.2,2.8,2.7c0,1.3-0.8,2.4-2,2.7
					c-0.2,0.1-0.5,0.1-0.8,0.1c-0.3,0-0.5,0-0.7-0.1C190.9,503.1,190.1,502.1,190.1,500.8z M342.6,404.5c-1.2,0-2.3-0.8-2.6-2
					c-0.1-0.2-0.1-0.5-0.1-0.8c0-0.3,0-0.5,0.1-0.7c0.3-1.2,1.4-2,2.6-2c1.5,0,2.8,1.2,2.8,2.8C345.3,403.3,344.1,404.5,342.6,404.5
					C342.6,404.5,342.6,404.5,342.6,404.5L342.6,404.5z"/>
				
					<linearGradient id="SVGID_00000144327677547261898790000009748906362212224933_" gradientUnits="userSpaceOnUse" x1="252.5452" y1="530.7998" x2="259.6752" y2="724.6998" gradientTransform="matrix(1 0 0 -1 160.52 874.49)">
					<stop  offset="0" style="stop-color:#D49895"/>
					<stop  offset="1" style="stop-color:#AA312C"/>
				</linearGradient>
				<path style="fill:url(#SVGID_00000144327677547261898790000009748906362212224933_);" d="M435.9,354.6v-27.5l-37.7-37.6V156.9
					c2.3-0.4,3.8-2.6,3.4-4.9c-0.4-2.3-2.6-3.8-4.9-3.4c-2.3,0.4-3.8,2.6-3.4,4.9c0.3,1.7,1.7,3.1,3.4,3.4v133.2l37.7,37.7v26.9
					c-2.3,0.4-3.8,2.6-3.4,4.9c0.4,2.3,2.6,3.8,4.9,3.4s3.8-2.6,3.4-4.9C439,356.3,437.6,354.9,435.9,354.6L435.9,354.6z
					 M394.7,152.6c0-1.5,1.2-2.8,2.8-2.8c1.5,0,2.8,1.2,2.8,2.8c0,0,0,0,0,0c0,1.2-0.8,2.3-2,2.7c-0.2,0.1-0.5,0.1-0.7,0.1
					c-0.3,0-0.5,0-0.8-0.1C395.5,155,394.7,153.9,394.7,152.6z M435.1,361.5c-1.5,0-2.8-1.2-2.8-2.8c0-1.2,0.8-2.3,2-2.6
					c0.2-0.1,0.5-0.1,0.7-0.1c0.3,0,0.5,0,0.8,0.1c1.2,0.3,2,1.4,2,2.6C437.9,360.3,436.6,361.5,435.1,361.5z"/>
			</g>
		</g>
	</g>
</g>
</svg>
