<?xml version="1.0" encoding="utf-8"?>
<!-- Generator: Adobe Illustrator 26.0.1, SVG Export Plug-In . SVG Version: 6.00 Build 0)  -->
<svg version="1.1" id="Layer_1" xmlns="http://www.w3.org/2000/svg" xmlns:xlink="http://www.w3.org/1999/xlink" x="0px" y="0px"
	 viewBox="0 0 742.6 839.6" style="enable-background:new 0 0 742.6 839.6;" xml:space="preserve">
<style type="text/css">
	.st0{clip-path:url(#SVGID_00000133522572616912055870000000667349373355215031_);}
	.st1{fill:url(#SVGID_00000059997361766825459950000013137745615175123627_);}
	.st2{fill:url(#SVGID_00000050647354429102067820000010143726018327098034_);}
	.st3{fill:url(#SVGID_00000019645384272373661210000011891375188847539612_);}
	.st4{fill:url(#SVGID_00000068651185619122495480000015182792861365580477_);}
	.st5{fill:url(#SVGID_00000093858446066244174020000007649244244137824128_);}
	.st6{fill:url(#SVGID_00000098223031451018650740000016060911908493190040_);}
	.st7{fill:url(#SVGID_00000025415184056951838630000016035395745364054719_);}
	.st8{fill:url(#SVGID_00000132805772463566898190000002136093469682367420_);}
	.st9{fill:url(#SVGID_00000061437048165744859600000015128992577809296513_);}
	.st10{fill:url(#SVGID_00000098184893411543182720000013599532319664844463_);}
	.st11{fill:url(#SVGID_00000055688617302358646460000006381829666388078212_);}
	.st12{fill:url(#SVGID_00000013155328793748378890000006340697746944175532_);}
	.st13{fill:url(#SVGID_00000067200530024244019990000008611132348774146458_);}
	.st14{fill:url(#SVGID_00000075160995778146159470000007957230915371621800_);}
	.st15{fill:url(#SVGID_00000155117021025466552930000005236546218362220428_);}
	.st16{fill:url(#SVGID_00000155112630472249122070000000116708163939385777_);}
	.st17{fill:url(#SVGID_00000145756613363147022460000002377016290276240033_);}
	.st18{fill:url(#SVGID_00000086664848234169852100000004948390879060071085_);}
	.st19{fill:url(#SVGID_00000154422431294534673280000015925468083072168091_);}
	.st20{fill:url(#SVGID_00000006665411387000757960000006547677119786715571_);}
	.st21{fill:url(#SVGID_00000015322127024666235690000009964873351877736865_);}
	.st22{fill:url(#SVGID_00000071550026553635356110000009881260741877908612_);}
	.st23{fill:#FFFFFF;}
	.st24{fill:url(#SVGID_00000097475538358496990730000014221221607869719940_);}
	.st25{fill:url(#SVGID_00000102535052410734037650000001540469249136518021_);}
	.st26{fill:url(#SVGID_00000109711077500442138160000004300519193222389901_);}
	.st27{fill:url(#SVGID_00000157266326038373406260000001059218662433314482_);}
	.st28{fill:url(#SVGID_00000158745936318356929290000014239096849732537522_);}
	.st29{fill:url(#SVGID_00000175283198486297350470000013911355041516300196_);}
	.st30{fill:url(#SVGID_00000051341126246079808760000003825864494358279849_);}
	.st31{fill:url(#SVGID_00000012468165752819823010000017002326650804534681_);}
	.st32{fill:url(#SVGID_00000050638888057002468780000003961549335468872578_);}
	.st33{fill:url(#SVGID_00000151530308710396516510000009683992441622917264_);}
	.st34{fill:url(#SVGID_00000098911869429355429170000001653398294735315599_);}
	.st35{fill:url(#SVGID_00000173845979635119560540000015345057171842389932_);}
	.st36{fill:url(#SVGID_00000101070718736984889400000012076543376533190786_);}
	.st37{fill:url(#SVGID_00000133517564959549434970000009899158725633370805_);}
	.st38{fill:url(#SVGID_00000140698274277978091730000011445187059823657359_);}
	.st39{fill:url(#SVGID_00000155852902242710038910000000317001567239126707_);}
	.st40{fill:url(#SVGID_00000125586747645972490290000013760068562558988174_);}
	.st41{fill:url(#SVGID_00000028302603667320287810000001433645771530941615_);}
	.st42{fill:url(#SVGID_00000078007823141577427740000005165687647761129654_);}
	.st43{fill:url(#SVGID_00000110429634004016867760000010287264289540570045_);}
	.st44{fill:url(#SVGID_00000093869802791697729990000002343456541101169821_);}
	.st45{fill:url(#SVGID_00000031900547853094006680000009865528537625047218_);}
	.st46{fill:url(#SVGID_00000001639179241457576550000007399905745728558497_);}
	.st47{fill:url(#SVGID_00000006665570955772584890000010197478524096767893_);}
	.st48{fill:url(#SVGID_00000165197066913008452450000004766112528397817497_);}
	.st49{fill:url(#SVGID_00000069373346158676837500000015048457031661114532_);}
	.st50{fill:url(#SVGID_00000016795770762448543020000008230498481841402541_);}
	.st51{fill:url(#SVGID_00000181787623229666242380000012069925902566682259_);}
</style>
<g id="Layer_2_00000057833862967069401640000002284639997846478265_">
	<g id="Layer_1-2">
		<g>
			<defs>
				<rect id="SVGID_1_" x="121.5" y="-4.1" width="621.6" height="843.2"/>
			</defs>
			<clipPath id="SVGID_00000000927797308491901770000018403906584569405869_">
				<use xlink:href="#SVGID_1_"  style="overflow:visible;"/>
			</clipPath>
			<g style="clip-path:url(#SVGID_00000000927797308491901770000018403906584569405869_);">
				
					<linearGradient id="SVGID_00000068663182916666565840000009932972119808146095_" gradientUnits="userSpaceOnUse" x1="34.5793" y1="289.6928" x2="97.76" y2="289.6928" gradientTransform="matrix(-1 0 0 1 330.17 455.42)">
					<stop  offset="0" style="stop-color:#EED6D5"/>
					<stop  offset="1" style="stop-color:#BB5A56"/>
				</linearGradient>
				<path style="fill:url(#SVGID_00000068663182916666565840000009932972119808146095_);" d="M292.1,659.2c2.3-0.4,3.9-2.6,3.5-5
					s-2.6-3.9-5-3.5c-2.3,0.4-3.9,2.6-3.5,5c0.3,1.8,1.7,3.1,3.5,3.5v26.1l-58.2,58.2v96h1.5v-95.4l58.2-58.2V659.2z M288.5,655
					c0-1.5,1.2-2.8,2.8-2.8c1.5,0,2.8,1.2,2.8,2.8c0,0,0,0,0,0c0,1.2-0.8,2.3-2,2.6c-0.2,0.1-0.5,0.1-0.7,0.1c-0.3,0-0.5,0-0.8-0.1
					C289.4,657.3,288.5,656.2,288.5,655L288.5,655z"/>
				
					<linearGradient id="SVGID_00000011737936348521585760000014190279275468096675_" gradientUnits="userSpaceOnUse" x1="22.7693" y1="216.7678" x2="54.1087" y2="216.7678" gradientTransform="matrix(-1 0 0 1 330.17 455.42)">
					<stop  offset="0" style="stop-color:#EED6D5"/>
					<stop  offset="1" style="stop-color:#BB5A56"/>
				</linearGradient>
				<path style="fill:url(#SVGID_00000011737936348521585760000014190279275468096675_);" d="M281.5,711.9c-0.6-0.4-1.2-0.6-1.9-0.6
					c-1.9,0-3.5,1.6-3.5,3.5c0,1.9,1.6,3.5,3.5,3.5c1.9,0,3.5-1.6,3.5-3.5c0-0.7-0.2-1.4-0.6-1.9l21.3-21.3v-57.2
					c2.3-0.4,3.9-2.6,3.5-5s-2.6-3.9-5-3.5c-2.3,0.4-3.9,2.6-3.5,5c0.3,1.8,1.7,3.1,3.5,3.5V691L281.5,711.9z M300.4,630.3
					c0-1.5,1.2-2.8,2.8-2.8c1.5,0,2.8,1.2,2.8,2.8c0,0,0,0,0,0c0,1.2-0.8,2.3-2,2.6c-0.2,0.1-0.5,0.1-0.7,0.1c-0.3,0-0.5,0-0.8-0.1
					C301.2,632.6,300.4,631.5,300.4,630.3L300.4,630.3z"/>
				
					<linearGradient id="SVGID_00000158003869926157489400000010161236310844437900_" gradientUnits="userSpaceOnUse" x1="5.9693" y1="280.445" x2="87.6407" y2="280.445" gradientTransform="matrix(-1 0 0 1 330.17 455.42)">
					<stop  offset="0" style="stop-color:#EED6D5"/>
					<stop  offset="1" style="stop-color:#BB5A56"/>
				</linearGradient>
				<path style="fill:url(#SVGID_00000158003869926157489400000010161236310844437900_);" d="M261.8,733.3h22.8l36.2-36.2v-34.4
					c2.3-0.4,3.9-2.6,3.5-5s-2.6-3.9-5-3.5c-2.3,0.4-3.9,2.6-3.5,5c0.3,1.8,1.7,3.1,3.5,3.5v33.8l-35.3,35.3h-22.8l-15.1,15.1V809
					c-2.3,0.4-3.9,2.6-3.5,5c0.4,2.3,2.6,3.9,5,3.5c2.3-0.4,3.9-2.6,3.5-5c-0.3-1.8-1.7-3.1-3.5-3.5v-61.5L261.8,733.3z
					 M317.2,658.5c0-1.5,1.2-2.8,2.8-2.8s2.8,1.2,2.8,2.8l0,0c0,1.2-0.8,2.3-2,2.7c-0.2,0.1-0.5,0.1-0.8,0.1c-0.3,0-0.5,0-0.7-0.1
					C318,660.8,317.2,659.7,317.2,658.5z M249.6,813.2c0,1.5-1.2,2.8-2.8,2.8s-2.8-1.2-2.8-2.8c0-1.2,0.8-2.3,2-2.6
					c0.2-0.1,0.5-0.1,0.7-0.1c0.3,0,0.5,0,0.8,0.1C248.7,810.9,249.6,812,249.6,813.2L249.6,813.2z"/>
				
					<linearGradient id="SVGID_00000013909821663849014570000016463150335990264192_" gradientUnits="userSpaceOnUse" x1="-573.45" y1="214.29" x2="-156.6" y2="214.29" gradientTransform="matrix(-1 0 0 1 330.16 455.41)">
					<stop  offset="0" style="stop-color:#D49895"/>
					<stop  offset="1" style="stop-color:#AA312C"/>
				</linearGradient>
				<polygon style="fill:url(#SVGID_00000013909821663849014570000016463150335990264192_);" points="594.9,647.1 594.9,764.4 
					486.8,872.5 487.8,873.6 596.4,765 596.4,647.7 776.8,467.3 903.6,467.3 903.6,465.8 776.2,465.8 				"/>
				
					<linearGradient id="SVGID_00000060725553223645175510000011418466780281707170_" gradientUnits="userSpaceOnUse" x1="-245.21" y1="317.245" x2="-146.62" y2="317.245" gradientTransform="matrix(-1 0 0 1 330.17 455.42)">
					<stop  offset="0" style="stop-color:#D49895"/>
					<stop  offset="1" style="stop-color:#AA312C"/>
				</linearGradient>
				<path style="fill:url(#SVGID_00000060725553223645175510000011418466780281707170_);" d="M575.4,692.3l-68.8,68.8
					c-0.6-0.4-1.2-0.6-1.9-0.6c-1.9,0-3.5,1.6-3.5,3.5c0,1.9,1.6,3.5,3.5,3.5c1.9,0,3.5-1.6,3.5-3.5c0-0.7-0.2-1.4-0.6-1.9
					l66.2-66.2v58.8l-97.1,97.1l1.1,1.1l97.5-97.5V692.3z"/>
				
					<linearGradient id="SVGID_00000080921789372675971810000014522414845281002931_" gradientUnits="userSpaceOnUse" x1="-136.43" y1="350.39" x2="18.8995" y2="350.39" gradientTransform="matrix(-1 0 0 1 330.17 455.42)">
					<stop  offset="0" style="stop-color:#D49895"/>
					<stop  offset="1" style="stop-color:#AA312C"/>
				</linearGradient>
				<path style="fill:url(#SVGID_00000080921789372675971810000014522414845281002931_);" d="M433.5,763.3l-50.9,50.9h-64.4
					c-0.4-1.9-2.3-3.1-4.2-2.7c-1.9,0.4-3.1,2.3-2.7,4.2s2.3,3.1,4.2,2.7c1.3-0.3,2.4-1.3,2.7-2.7h65l50.9-50.9H463l-82.4,82.4
					l1.1,1.1l85-85L433.5,763.3z"/>
				
					<linearGradient id="SVGID_00000003097049402532203070000017224639953757986202_" gradientUnits="userSpaceOnUse" x1="-112.4004" y1="322.9871" x2="60.36" y2="322.9871" gradientTransform="matrix(-1 0 0 1 330.17 455.42)">
					<stop  offset="0" style="stop-color:#D49895"/>
					<stop  offset="1" style="stop-color:#AA312C"/>
				</linearGradient>
				<path style="fill:url(#SVGID_00000003097049402532203070000017224639953757986202_);" d="M437.3,718.3c1.7,1,3.8,0.4,4.8-1.2
					c1-1.7,0.4-3.8-1.2-4.8c-1.7-1-3.8-0.4-4.8,1.2c-0.3,0.5-0.5,1.2-0.5,1.8c0,0.7,0.2,1.4,0.6,2l-53.3,53.3h-82.1l-31,31v43.6h1.5
					v-43l30.1-30.1h82.1L437.3,718.3z"/>
				
					<linearGradient id="SVGID_00000157307600587789857990000008420999800916481967_" gradientUnits="userSpaceOnUse" x1="-397.2945" y1="115.6303" x2="-396.5745" y2="210.4403" gradientTransform="matrix(-1 0 0 1 330.17 455.42)">
					<stop  offset="0" style="stop-color:#EED6D5"/>
					<stop  offset="1" style="stop-color:#AA312C"/>
				</linearGradient>
				<path style="fill:url(#SVGID_00000157307600587789857990000008420999800916481967_);" d="M714.7,581.4c1.9-0.4,3.1-2.3,2.7-4.2
					c-0.4-1.9-2.3-3.1-4.2-2.7c-1.9,0.4-3.1,2.3-2.7,4.2c0.3,1.3,1.3,2.4,2.7,2.7v135.5l-18.5-18.5v-39.6l10.9-10.9v-32.5
					c2.3-0.4,3.8-2.6,3.4-4.9c-0.4-2.3-2.6-3.8-4.9-3.4c-2.3,0.4-3.8,2.6-3.4,4.9c0.3,1.7,1.7,3.1,3.4,3.4v31.9l-10.9,10.9v40.9
					l20,20v35.5l44.9,44.9l1.1-1.1L714.8,754L714.7,581.4z M702.1,611.2c0-1.5,1.2-2.8,2.8-2.8c1.5,0,2.8,1.2,2.8,2.8
					c0,1.3-0.8,2.4-2,2.7c-0.2,0.1-0.5,0.1-0.7,0.1c-0.3,0-0.5,0-0.8-0.1C703,613.5,702.2,612.4,702.1,611.2L702.1,611.2z"/>
				
					<linearGradient id="SVGID_00000042714539230813527660000002360382360881951925_" gradientUnits="userSpaceOnUse" x1="-573.45" y1="15.8154" x2="-224.7103" y2="15.8154" gradientTransform="matrix(-1 0 0 1 330.17 455.42)">
					<stop  offset="0" style="stop-color:#EED6D5"/>
					<stop  offset="1" style="stop-color:#AA312C"/>
				</linearGradient>
				<path style="fill:url(#SVGID_00000042714539230813527660000002360382360881951925_);" d="M669,517.8H561.8
					c-0.4-1.9-2.3-3.1-4.2-2.7c-1.9,0.4-3.1,2.3-2.7,4.2c0.4,1.9,2.3,3.1,4.2,2.7c1.3-0.3,2.4-1.3,2.7-2.7h107.8l97.4-97.4h136.6
					v-1.5H766.4L669,517.8z"/>
				
					<linearGradient id="SVGID_00000067928239654193242850000014126518337366263197_" gradientUnits="userSpaceOnUse" x1="-305.76" y1="128.7704" x2="-143.6201" y2="128.7704" gradientTransform="matrix(-1 0 0 1 330.17 455.42)">
					<stop  offset="0" style="stop-color:#D49895"/>
					<stop  offset="1" style="stop-color:#AA312C"/>
				</linearGradient>
				<path style="fill:url(#SVGID_00000067928239654193242850000014126518337366263197_);" d="M480.8,607.3c-0.4-1.9-2.3-3.1-4.2-2.7
					c-1.9,0.4-3.1,2.3-2.7,4.2c0.4,1.9,2.3,3.1,4.2,2.7c1.3-0.3,2.4-1.3,2.7-2.7h19.1l50.5-50.5h82l-41.6,41.6
					c-0.6-0.4-1.3-0.6-2-0.6c-2,0-3.5,1.6-3.6,3.5c0,2,1.6,3.5,3.5,3.6s3.5-1.6,3.6-3.5c0-0.7-0.2-1.3-0.5-1.9l44.2-44.2h-86.2
					l-50.5,50.5L480.8,607.3z"/>
				
					<linearGradient id="SVGID_00000136392530022486504300000013454738308780010139_" gradientUnits="userSpaceOnUse" x1="-244.3883" y1="131.5517" x2="-135.3183" y2="141.5317" gradientTransform="matrix(-1 0 0 1 330.17 455.42)">
					<stop  offset="0" style="stop-color:#EED6D5"/>
					<stop  offset="1" style="stop-color:#BB5A56"/>
				</linearGradient>
				<path style="fill:url(#SVGID_00000136392530022486504300000013454738308780010139_);" d="M556.8,570.4L530,597.2l0,0
					c-0.7-0.5-1.5-0.7-2.3-0.7c-2.4,0-4.3,1.9-4.3,4.3c0,2.4,1.9,4.3,4.3,4.3c2.4,0,4.3-1.9,4.3-4.3c0-0.9-0.3-1.8-0.8-2.6
					l26.3-26.3h41.4l-25.9,25.9c-1.9-1.4-4.6-1-6,0.9c-0.5,0.7-0.8,1.6-0.8,2.5c0,2.4,1.9,4.3,4.3,4.3c2.4,0,4.3-1.9,4.3-4.3
					c0-0.8-0.2-1.6-0.7-2.3l28.5-28.5L556.8,570.4z M530.4,600.7c0,1.5-1.2,2.8-2.8,2.8s-2.8-1.2-2.8-2.8c0-1.5,1.2-2.8,2.8-2.8
					c0.4,0,0.9,0.1,1.2,0.3c0.5,0.2,0.8,0.6,1.1,1C530.3,599.7,530.4,600.2,530.4,600.7z M573.1,601.3c0,1.5-1.2,2.8-2.8,2.8
					c-1.5,0-2.8-1.2-2.8-2.8c0-1.5,1.2-2.8,2.8-2.8c0.5,0,1.1,0.1,1.5,0.4c0.4,0.3,0.8,0.6,1,1.1C573,600.4,573.1,600.8,573.1,601.3
					L573.1,601.3z"/>
				
					<linearGradient id="SVGID_00000108999386891742019200000012840275223160623256_" gradientUnits="userSpaceOnUse" x1="-414.8455" y1="382.1274" x2="-362.5655" y2="273.7674" gradientTransform="matrix(-1 0 0 1 330.17 455.42)">
					<stop  offset="0" style="stop-color:#EED6D5"/>
					<stop  offset="1" style="stop-color:#AA312C"/>
				</linearGradient>
				<path style="fill:url(#SVGID_00000108999386891742019200000012840275223160623256_);" d="M693.3,744v23.2l24.7,24.7
					c-0.4,0.6-0.6,1.2-0.6,1.9c0,1.9,1.6,3.5,3.6,3.5c1.9,0,3.5-1.6,3.5-3.6c0-1.9-1.6-3.5-3.6-3.5c-0.7,0-1.3,0.2-1.9,0.6
					l-24.3-24.3v-21.9l8.1-8.1v25.4l23.5,23.5c-0.4,0.6-0.6,1.2-0.6,1.9c0,1.9,1.6,3.5,3.5,3.5c1.9,0,3.5-1.6,3.5-3.5
					c0-1.9-1.6-3.5-3.5-3.5c-0.7,0-1.3,0.2-1.9,0.6l0,0l-23-23V729c2.3-0.4,3.9-2.6,3.5-5c-0.4-2.3-2.6-3.9-5-3.5
					c-2.3,0.4-3.9,2.6-3.5,5c0.3,1.8,1.7,3.1,3.5,3.5v5.3L693.3,744z M700.9,724.8c0-1.5,1.2-2.8,2.8-2.8c1.5,0,2.8,1.2,2.8,2.8
					c0,1.2-0.8,2.3-2,2.7c-0.2,0.1-0.5,0.1-0.8,0.1c-0.3,0-0.5,0-0.7-0.1C701.7,727.1,700.9,726,700.9,724.8z"/>
				
					<linearGradient id="SVGID_00000052802175501347671410000007928890706461393081_" gradientUnits="userSpaceOnUse" x1="113.0893" y1="243.21" x2="169.17" y2="243.21" gradientTransform="matrix(-1 0 0 1 330.17 455.42)">
					<stop  offset="0" style="stop-color:#EED6D5"/>
					<stop  offset="1" style="stop-color:#BB5A56"/>
				</linearGradient>
				<path style="fill:url(#SVGID_00000052802175501347671410000007928890706461393081_);" d="M161,683.1v156.3h1.5V683.8l51.8-51.8
					v-67.2c1.9-0.4,3.1-2.3,2.7-4.2c-0.4-1.9-2.3-3.1-4.2-2.7c-1.9,0.4-3.1,2.3-2.7,4.2c0.3,1.3,1.3,2.4,2.7,2.7v66.6L161,683.1z"/>
				
					<linearGradient id="SVGID_00000113334920610686510230000009582276018704189582_" gradientUnits="userSpaceOnUse" x1="-573.4399" y1="13.66" x2="-106.4597" y2="13.66" gradientTransform="matrix(-1 0 0 1 330.17 455.42)">
					<stop  offset="0" style="stop-color:#EED6D5"/>
					<stop  offset="1" style="stop-color:#AA312C"/>
				</linearGradient>
				<path style="fill:url(#SVGID_00000113334920610686510230000009582276018704189582_);" d="M440.9,569.1c2.4,0,4.3-1.9,4.3-4.3
					l0,0c0-0.9-0.3-1.7-0.8-2.4l93.6-93.6h113.7l98.3-98.3h153.7V369H749.3l-98.3,98.3H537.4l-94.1,94c-0.7-0.5-1.6-0.8-2.4-0.8
					c-2.4,0-4.3,1.9-4.3,4.3C436.6,567.2,438.5,569.1,440.9,569.1L440.9,569.1z M439.4,562.6c0.5-0.3,1-0.5,1.5-0.5
					c0.5,0,0.9,0.1,1.3,0.4l0,0c0.5,0.3,1,0.8,1.2,1.3c0,0,0,0,0,0.1c0.1,0.3,0.2,0.7,0.2,1c0,0.5-0.2,1.1-0.5,1.5
					c-0.2,0.3-0.4,0.5-0.7,0.7c-0.9,0.6-2.2,0.6-3.1,0c-0.2-0.1-0.3-0.2-0.4-0.3c-0.5-0.5-0.8-1.2-0.8-1.9
					C438.1,563.9,438.6,563.1,439.4,562.6z"/>
				
					<linearGradient id="SVGID_00000170994158840982850940000012820064648424450208_" gradientUnits="userSpaceOnUse" x1="-173.5287" y1="176.6432" x2="-16.6242" y2="176.6432" gradientTransform="matrix(-1 0 0 1 330.17 455.42)">
					<stop  offset="0" style="stop-color:#EED6D5"/>
					<stop  offset="1" style="stop-color:#AA312C"/>
				</linearGradient>
				<path style="fill:url(#SVGID_00000170994158840982850940000012820064648424450208_);" d="M369.6,693.8l-17.3,17.3
					c-1.6-1.1-3.8-0.7-4.9,0.9s-0.7,3.8,0.9,4.9c1.6,1.1,3.8,0.7,4.9-0.9c0.8-1.1,0.8-2.6,0.1-3.8l17.7-17.7v-70.1l19-19h56
					l52.2-52.2c0.6,0.4,1.2,0.6,1.9,0.6c1.9,0,3.5-1.6,3.5-3.6c0-1.9-1.6-3.5-3.6-3.5c-1.9,0-3.5,1.6-3.5,3.6c0,0.7,0.2,1.3,0.6,1.9
					l-51.7,51.9h-56l-19.9,19.9L369.6,693.8z"/>
				
					<linearGradient id="SVGID_00000123414597533516175910000004936232972871824786_" gradientUnits="userSpaceOnUse" x1="-573.47" y1="-75.9786" x2="-222.0189" y2="-75.9786" gradientTransform="matrix(-1 0 0 1 330.17 455.42)">
					<stop  offset="0" style="stop-color:#EED6D5"/>
					<stop  offset="1" style="stop-color:#AA312C"/>
				</linearGradient>
				<path style="fill:url(#SVGID_00000123414597533516175910000004936232972871824786_);" d="M666.5,415.3H559.2
					c-0.1-1.9-1.8-3.4-3.8-3.2c-1.9,0.1-3.4,1.8-3.2,3.8c0.1,1.9,1.8,3.4,3.8,3.2c1.4-0.1,2.5-1,3-2.3h108.2l75.5-75.5h161v-1.5H742
					L666.5,415.3z"/>
				
					<linearGradient id="SVGID_00000067937416713296157760000008658374649313335446_" gradientUnits="userSpaceOnUse" x1="-308.1943" y1="-39.59" x2="-163.88" y2="-39.59" gradientTransform="matrix(-1 0 0 1 330.17 455.42)">
					<stop  offset="0" style="stop-color:#D49895"/>
					<stop  offset="1" style="stop-color:#AA312C"/>
				</linearGradient>
				<path style="fill:url(#SVGID_00000067937416713296157760000008658374649313335446_);" d="M629.9,444.3c0.4,2.3,2.6,3.9,5,3.5
					s3.9-2.6,3.5-5c-0.4-2.3-2.6-3.9-5-3.5c-1.8,0.3-3.1,1.7-3.5,3.5H497.7l53.9-53.9h32.6c0.4,2.3,2.6,3.9,5,3.5s3.9-2.6,3.5-5
					s-2.6-3.9-5-3.5c-1.8,0.3-3.1,1.7-3.5,3.5H551l-56.9,56.9H629.9z M631.5,442.8c0.3-1.2,1.4-2,2.6-2c1.5,0,2.8,1.2,2.8,2.7
					c0,1.5-1.2,2.8-2.7,2.8c-1.3,0-2.4-0.8-2.7-2c-0.1-0.2-0.1-0.5-0.1-0.8C631.3,443.3,631.4,443,631.5,442.8L631.5,442.8z
					 M585.7,387.4c0.1-0.5,0.4-0.9,0.7-1.2c0.1-0.1,0.2-0.2,0.3-0.3c0.3-0.2,0.7-0.4,1.1-0.5c0.2,0,0.3-0.1,0.5-0.1l0,0
					c1.5,0,2.8,1.3,2.8,2.8v0c0,0.7-0.3,1.4-0.8,1.9c-0.1,0.1-0.3,0.2-0.4,0.3c-0.5,0.3-1,0.5-1.5,0.5l0,0c-0.2,0-0.4,0-0.5-0.1
					c-0.2,0-0.4-0.1-0.5-0.2c-0.2-0.1-0.3-0.1-0.5-0.3c-0.1-0.1-0.3-0.2-0.4-0.3c-0.2-0.2-0.4-0.5-0.6-0.8c-0.1-0.1-0.1-0.3-0.2-0.4
					c-0.1-0.2-0.1-0.5-0.1-0.7C585.6,387.9,585.6,387.6,585.7,387.4z"/>
				
					<linearGradient id="SVGID_00000179637209756456298980000017398567637098422660_" gradientUnits="userSpaceOnUse" x1="-181.0899" y1="48.405" x2="-58.0457" y2="48.405" gradientTransform="matrix(-1 0 0 1 330.17 455.42)">
					<stop  offset="0" style="stop-color:#D49895"/>
					<stop  offset="1" style="stop-color:#AA312C"/>
				</linearGradient>
				<path style="fill:url(#SVGID_00000179637209756456298980000017398567637098422660_);" d="M426.9,539.6h-30.2
					c-0.4-2.3-2.6-3.9-5-3.5c-2.3,0.4-3.9,2.6-3.5,5s2.6,3.9,5,3.5c1.8-0.3,3.1-1.7,3.5-3.5h30.8l25.7-25.7V495l27.7-27.7h23.4
					c0.4,1.9,2.3,3.1,4.2,2.7c1.9-0.4,3.1-2.3,2.7-4.2c-0.4-1.9-2.3-3.1-4.2-2.7c-1.3,0.3-2.4,1.3-2.7,2.7h-24l-48.5,48.6h-19.6
					c-0.4-2.3-2.6-3.9-5-3.5c-2.3,0.4-3.9,2.6-3.5,5s2.6,3.9,5,3.5c1.8-0.3,3.1-1.7,3.5-3.5h20.3l19.3-19.3v18.3L426.9,539.6z
					 M392.5,543.1c-1.5,0-2.8-1.2-2.8-2.8c0-1.5,1.2-2.8,2.8-2.8c1.2,0,2.3,0.8,2.6,2c0.1,0.2,0.1,0.5,0.1,0.7c0,0.3,0,0.5-0.1,0.8
					C394.8,542.3,393.7,543.1,392.5,543.1z M407.9,517.9c-1.5,0-2.8-1.2-2.8-2.8c0-1.5,1.2-2.8,2.8-2.8c1.2,0,2.3,0.8,2.7,2
					c0.1,0.2,0.1,0.5,0.1,0.8c0,0.3,0,0.5-0.1,0.7C410.3,517.1,409.2,517.9,407.9,517.9z"/>
				
					<linearGradient id="SVGID_00000061471680645449605670000011138329795596725649_" gradientUnits="userSpaceOnUse" x1="-358.8088" y1="42.4654" x2="-245.5257" y2="42.4654" gradientTransform="matrix(-1 0 0 1 330.17 455.42)">
					<stop  offset="0" style="stop-color:#EED6D5"/>
					<stop  offset="1" style="stop-color:#AA312C"/>
				</linearGradient>
				<path style="fill:url(#SVGID_00000061471680645449605670000011138329795596725649_);" d="M584.2,507.3c-0.4-2.3-2.6-3.9-5-3.5
					c-2.3,0.4-3.9,2.6-3.5,5c0.4,2.3,2.6,3.9,5,3.5c1.8-0.3,3.1-1.7,3.5-3.5h80.5l18.9-18.9c0.6,0.4,1.2,0.6,1.9,0.6
					c1.9,0,3.5-1.6,3.5-3.6c0-1.9-1.6-3.5-3.6-3.5c-1.9,0-3.5,1.6-3.5,3.6c0,0.7,0.2,1.3,0.6,1.9L664,507.3H584.2z M580,510.9
					c-1.5,0-2.8-1.2-2.8-2.8c0-1.5,1.2-2.8,2.8-2.8l0,0c1.2,0,2.3,0.8,2.6,2c0.1,0.2,0.1,0.5,0.1,0.8c0,0.3,0,0.5-0.1,0.7
					C582.3,510,581.2,510.9,580,510.9L580,510.9z"/>
				
					<linearGradient id="SVGID_00000016045538857035222960000012397350204427903617_" gradientUnits="userSpaceOnUse" x1="-469.33" y1="-293.5902" x2="-248.0404" y2="-293.5902" gradientTransform="matrix(-1 0 0 1 330.17 455.42)">
					<stop  offset="0" style="stop-color:#EED6D5"/>
					<stop  offset="1" style="stop-color:#AA312C"/>
				</linearGradient>
				<path style="fill:url(#SVGID_00000016045538857035222960000012397350204427903617_);" d="M632.8,134.9v68.7l-49.2,49.2
					c-1.6-1.1-3.8-0.6-4.9,1.1s-0.6,3.8,1.1,4.9c1.6,1.1,3.8,0.6,4.9-1.1c0.7-1.2,0.7-2.7,0-3.8l49.6-49.6v-68.6L704,65.9h95.5v-1.5
					h-96.2L632.8,134.9z"/>
				
					<linearGradient id="SVGID_00000175281022337363089870000002215397806879754401_" gradientUnits="userSpaceOnUse" x1="-365.7799" y1="-269" x2="-271.9584" y2="-269" gradientTransform="matrix(-1 0 0 1 330.17 455.42)">
					<stop  offset="0" style="stop-color:#EED6D5"/>
					<stop  offset="1" style="stop-color:#AA312C"/>
				</linearGradient>
				<path style="fill:url(#SVGID_00000175281022337363089870000002215397806879754401_);" d="M654.3,214.1l-45.5,45.5
					c-0.7-0.5-1.6-0.8-2.4-0.8c-2.3,0-4.2,1.9-4.2,4.3c0,2.3,1.9,4.2,4.3,4.2s4.2-1.9,4.2-4.3c0-0.9-0.3-1.7-0.8-2.4l46-46v-68
					l33.4-33.4c0.7,0.5,1.6,0.8,2.4,0.8c2.4,0,4.3-1.9,4.3-4.3s-1.9-4.3-4.3-4.3c-2.4,0-4.3,1.9-4.3,4.3c0,0.9,0.3,1.7,0.8,2.4
					L654.3,146L654.3,214.1z M609.1,263.1c0,1.5-1.2,2.8-2.8,2.8c-1.5,0-2.8-1.2-2.8-2.8c0-1.5,1.2-2.8,2.8-2.8
					c0.5,0,0.9,0.1,1.3,0.4c0.4,0.2,0.8,0.6,1.1,1.1C609,262.2,609.1,262.6,609.1,263.1L609.1,263.1z M688.9,109.9
					c0-1.5,1.3-2.8,2.8-2.7c1.5,0,2.8,1.3,2.7,2.8c0,1.5-1.2,2.7-2.8,2.7c-0.5,0-0.9-0.1-1.3-0.4c-0.5-0.2-0.8-0.6-1.1-1.1
					C689,110.8,688.9,110.4,688.9,109.9z"/>
				
					<linearGradient id="SVGID_00000067938290402309980890000015515611737286900408_" gradientUnits="userSpaceOnUse" x1="-202.2607" y1="-76.0074" x2="-143.6004" y2="-76.0074" gradientTransform="matrix(-1 0 0 1 330.17 455.42)">
					<stop  offset="0" style="stop-color:#D49895"/>
					<stop  offset="1" style="stop-color:#AA312C"/>
				</linearGradient>
				<path style="fill:url(#SVGID_00000067938290402309980890000015515611737286900408_);" d="M479.2,431c-1.6-1.1-3.8-0.6-4.9,1.1
					c-1.1,1.6-0.6,3.8,1.1,4.9c1.6,1.1,3.8,0.6,4.9-1.1c0.7-1.2,0.7-2.7,0-3.8l48.6-48.6v-53.6c2.3-0.4,3.9-2.6,3.5-5
					s-2.6-3.9-5-3.5s-3.9,2.6-3.5,5c0.3,1.8,1.7,3.1,3.5,3.5v53L479.2,431z M525.4,325.6c0-1.5,1.2-2.8,2.8-2.8s2.8,1.2,2.8,2.8
					c0,1.2-0.8,2.3-2,2.6c-0.2,0.1-0.5,0.1-0.8,0.1c-0.3,0-0.5,0-0.7-0.1C526.2,327.9,525.4,326.8,525.4,325.6L525.4,325.6z"/>
				<path class="st23" d="M773.2,119.9v-1.5h-61.3l-37.1,37.1c-0.7-0.5-1.6-0.8-2.4-0.8c-2.4,0-4.3,1.9-4.3,4.3s1.9,4.3,4.3,4.3
					c2.4,0,4.3-1.9,4.3-4.3c0-0.9-0.3-1.7-0.8-2.4l36.7-36.7H773.2z M675,159.1c0,1.5-1.2,2.8-2.8,2.8s-2.8-1.2-2.8-2.8
					s1.2-2.8,2.8-2.8c0.5,0,0.9,0.1,1.3,0.4c0.5,0.2,0.8,0.6,1.1,1.1C674.9,158.1,675.1,158.6,675,159.1L675,159.1z"/>
				
					<linearGradient id="SVGID_00000013162638306912088850000005966051681296148142_" gradientUnits="userSpaceOnUse" x1="-432.33" y1="-127.4596" x2="-306.1703" y2="-127.4596" gradientTransform="matrix(-1 0 0 1 330.17 455.42)">
					<stop  offset="0" style="stop-color:#EED6D5"/>
					<stop  offset="1" style="stop-color:#AA312C"/>
				</linearGradient>
				<path style="fill:url(#SVGID_00000013162638306912088850000005966051681296148142_);" d="M723,301.1h39.5v-1.5h-40.1l-52.6,52.6
					h-26.5c-0.4-1.9-2.3-3.1-4.2-2.7s-3.1,2.3-2.7,4.2c0.4,1.9,2.3,3.1,4.2,2.7c1.3-0.3,2.4-1.3,2.7-2.7h27.2L723,301.1z"/>
				
					<linearGradient id="SVGID_00000077299357657234874900000003333353084085570713_" gradientUnits="userSpaceOnUse" x1="-336.7343" y1="-117.8796" x2="-271.2099" y2="-117.8796" gradientTransform="matrix(-1 0 0 1 330.17 455.42)">
					<stop  offset="0" style="stop-color:#EED6D5"/>
					<stop  offset="1" style="stop-color:#AA312C"/>
				</linearGradient>
				<path style="fill:url(#SVGID_00000077299357657234874900000003333353084085570713_);" d="M622.4,365.6h36c0.4,2.3,2.6,3.9,5,3.5
					s3.9-2.6,3.5-5c-0.4-2.3-2.6-3.9-5-3.5c-1.8,0.3-3.1,1.7-3.5,3.5H623l-19.5-19.6l30.6-30.6c0.7,0.4,1.4,0.7,2.2,0.7
					c2.4,0,4.3-1.9,4.3-4.3s-1.9-4.3-4.3-4.3s-4.3,1.9-4.3,4.3c0,0,0,0,0,0c0,0.9,0.3,1.9,0.9,2.6l-31.6,31.6L622.4,365.6z
					 M662.7,362c1.5,0,2.8,1.2,2.8,2.8c0,1.5-1.2,2.8-2.8,2.8c-1.2,0-2.3-0.8-2.6-2c-0.1-0.2-0.1-0.5-0.1-0.8c0-0.3,0-0.5,0.1-0.7
					C660.3,362.9,661.4,362,662.7,362z M633.6,310.3c0-1.5,1.2-2.8,2.8-2.8c1.5,0,2.8,1.2,2.8,2.8c0,1.5-1.2,2.8-2.8,2.8
					c0,0,0,0,0,0c-0.4,0-0.8-0.1-1.1-0.3c-0.5-0.2-0.9-0.6-1.1-1C633.7,311.3,633.6,310.8,633.6,310.3z"/>
				
					<linearGradient id="SVGID_00000040565924701537574580000000584337441570001852_" gradientUnits="userSpaceOnUse" x1="-361.7307" y1="-176.6222" x2="-292.4004" y2="-176.6222" gradientTransform="matrix(-1 0 0 1 330.17 455.42)">
					<stop  offset="0" style="stop-color:#D49895"/>
					<stop  offset="1" style="stop-color:#AA312C"/>
				</linearGradient>
				<path style="fill:url(#SVGID_00000040565924701537574580000000584337441570001852_);" d="M653,277.8v34.8l-25,25.1
					c-1.6-1.1-3.8-0.6-4.9,1.1c-1.1,1.6-0.6,3.8,1.1,4.9c1.6,1.1,3.8,0.6,4.9-1.1c0.7-1.2,0.7-2.7,0-3.8l0,0l25.4-25.5v-34.8
					l33.9-33.9v-22.6c2.3-0.4,3.8-2.6,3.4-4.9c-0.4-2.3-2.6-3.8-4.9-3.4c-2.3,0.4-3.8,2.6-3.4,4.9c0.3,1.7,1.7,3.1,3.4,3.4v22
					L653,277.8z M684.9,217.8c0-1.5,1.2-2.8,2.8-2.8s2.8,1.2,2.8,2.8c0,1.2-0.8,2.3-2,2.6c-0.2,0.1-0.5,0.1-0.7,0.1
					c-0.3,0-0.5,0-0.8-0.1C685.7,220.1,684.9,219,684.9,217.8L684.9,217.8z"/>
				
					<linearGradient id="SVGID_00000176746400073904275200000016740212786473559473_" gradientUnits="userSpaceOnUse" x1="-372.9207" y1="-188.247" x2="-311.1201" y2="-188.247" gradientTransform="matrix(-1 0 0 1 330.17 455.42)">
					<stop  offset="0" style="stop-color:#D49895"/>
					<stop  offset="1" style="stop-color:#AA312C"/>
				</linearGradient>
				<path style="fill:url(#SVGID_00000176746400073904275200000016740212786473559473_);" d="M662.1,283v35.7L648,332.8
					c-0.7-0.5-1.6-0.8-2.4-0.8c-2.4,0-4.3,1.9-4.3,4.3s1.9,4.3,4.3,4.3c2.4,0,4.3-1.9,4.3-4.3c0-0.9-0.3-1.7-0.8-2.4l14.5-14.5
					v-35.7l36-36v-45.4c2.3-0.4,3.8-2.6,3.4-4.9c-0.4-2.3-2.6-3.8-4.9-3.4c-2.3,0.4-3.8,2.6-3.4,4.9c0.3,1.7,1.7,3.1,3.4,3.4v44.8
					L662.1,283z M648.3,336.3c0,1.5-1.3,2.8-2.8,2.8c-1.5,0-2.8-1.3-2.8-2.8c0-1.5,1.2-2.8,2.8-2.8c0.5,0,0.9,0.1,1.4,0.4
					c0.4,0.2,0.8,0.6,1.1,1.1C648.2,335.4,648.3,335.8,648.3,336.3L648.3,336.3z M696.1,198c0-1.5,1.2-2.8,2.8-2.8s2.8,1.2,2.8,2.8
					c0,1.2-0.8,2.3-2,2.6c-0.2,0.1-0.5,0.1-0.7,0.1c-0.3,0-0.5,0-0.8-0.1C696.9,200.3,696,199.3,696.1,198L696.1,198z"/>
				
					<linearGradient id="SVGID_00000047773900555782898940000015751734176674051220_" gradientUnits="userSpaceOnUse" x1="-402.2307" y1="361.7854" x2="-356.5657" y2="361.7854" gradientTransform="matrix(-1 0 0 1 330.17 455.42)">
					<stop  offset="0" style="stop-color:#D49895"/>
					<stop  offset="1" style="stop-color:#AA312C"/>
				</linearGradient>
				<path style="fill:url(#SVGID_00000047773900555782898940000015751734176674051220_);" d="M729.6,807.7c1.9-0.4,3.1-2.3,2.7-4.2
					c-0.4-1.9-2.3-3.1-4.2-2.7c-1.9,0.4-3.1,2.3-2.7,4.2c0.3,1.3,1.3,2.4,2.7,2.7v9.9l-11.1,11h-21.9c-0.4-2.3-2.6-3.9-5-3.5
					c-2.3,0.4-3.9,2.6-3.5,5c0.4,2.3,2.6,3.9,5,3.5c1.8-0.3,3.1-1.7,3.5-3.5h22.5l11.9-11.9V807.7z M691,832.2
					c-1.5,0-2.8-1.2-2.8-2.8s1.2-2.8,2.8-2.8c1.2,0,2.3,0.8,2.6,2c0.1,0.2,0.1,0.5,0.1,0.8c0,0.3,0,0.5-0.1,0.7
					C693.3,831.4,692.2,832.2,691,832.2z"/>
				
					<linearGradient id="SVGID_00000104708346301098416490000000364668929666844054_" gradientUnits="userSpaceOnUse" x1="-469.33" y1="-294.62" x2="-181.8911" y2="-294.62" gradientTransform="matrix(-1 0 0 1 330.17 455.42)">
					<stop  offset="0" style="stop-color:#EED6D5"/>
					<stop  offset="1" style="stop-color:#AA312C"/>
				</linearGradient>
				<path style="fill:url(#SVGID_00000104708346301098416490000000364668929666844054_);" d="M516.3,287.6c2.4,0,4.3-1.9,4.3-4.3
					c0,0,0,0,0,0c0-0.9-0.3-1.7-0.8-2.4l84.8-84.7v-69.5l91.2-91.2h103.7V34H695.2l-92.1,92.1v69.5l-84.3,84.3
					c-1.9-1.3-4.6-0.9-5.9,1.1c-1.3,1.9-0.9,4.6,1.1,5.9C514.6,287.3,515.5,287.6,516.3,287.6z M516.3,280.6c0.5,0,0.9,0.1,1.3,0.4
					c0.5,0.2,0.8,0.6,1.1,1.1c0.3,0.4,0.4,0.9,0.4,1.3c0,1.5-1.2,2.8-2.8,2.8c-1.5,0-2.8-1.2-2.8-2.8
					C513.6,281.8,514.8,280.6,516.3,280.6L516.3,280.6z"/>
				
					<linearGradient id="SVGID_00000071551108232405841960000015011914933142216843_" gradientUnits="userSpaceOnUse" x1="-238.2" y1="227.6635" x2="-125.7098" y2="227.6635" gradientTransform="matrix(-1 0 0 1 330.17 455.42)">
					<stop  offset="0" style="stop-color:#D49895"/>
					<stop  offset="1" style="stop-color:#AA312C"/>
				</linearGradient>
				<path style="fill:url(#SVGID_00000071551108232405841960000015011914933142216843_);" d="M568.4,631c0-2.4-1.9-4.3-4.3-4.3
					c-2.3,0-4.2,1.9-4.3,4.3c0,0.9,0.3,1.7,0.8,2.5l-99.4,99.4c-0.5-0.3-1.1-0.5-1.8-0.5c-2,0-3.6,1.6-3.6,3.5s1.6,3.6,3.5,3.6
					c2,0,3.6-1.6,3.6-3.5c0-0.7-0.2-1.5-0.6-2.1l0,0l99.4-99.3c0.7,0.5,1.6,0.8,2.4,0.8C566.5,635.3,568.4,633.4,568.4,631
					C568.4,631,568.4,631,568.4,631z M561.7,632.4c-0.2-0.4-0.4-0.9-0.4-1.4c0-1.5,1.3-2.8,2.8-2.7c1.5,0,2.8,1.3,2.7,2.8
					c0,1.5-1.2,2.7-2.8,2.7C563.1,633.8,562.2,633.2,561.7,632.4L561.7,632.4z"/>
				
					<linearGradient id="SVGID_00000102539378144755863110000016321263966903578798_" gradientUnits="userSpaceOnUse" x1="-98.6858" y1="242.6661" x2="-197.7758" y2="148.5661" gradientTransform="matrix(-1 0 0 1 330.17 455.42)">
					<stop  offset="0" style="stop-color:#D49895"/>
					<stop  offset="1" style="stop-color:#AA312C"/>
				</linearGradient>
				<path style="fill:url(#SVGID_00000102539378144755863110000016321263966903578798_);" d="M461.6,696.3c-2.4,0-4.3,1.9-4.3,4.3
					c0,2.4,1.9,4.3,4.3,4.3s4.3-1.9,4.3-4.3c0-0.9-0.3-1.7-0.8-2.4l75.5-75.5h-64.4c-0.4-2.3-2.6-3.8-4.9-3.4
					c-2.3,0.4-3.8,2.6-3.4,4.9s2.6,3.8,4.9,3.4c1.7-0.3,3.1-1.7,3.4-3.4H537l-73,73C463.3,696.6,462.5,696.3,461.6,696.3z
					 M472.1,626.1c-1.5,0-2.8-1.2-2.8-2.8s1.2-2.8,2.8-2.8c1.2,0,2.3,0.8,2.6,2c0.1,0.2,0.1,0.5,0.1,0.7c0,0.3,0,0.5-0.1,0.8
					C474.4,625.3,473.3,626.1,472.1,626.1L472.1,626.1z M464.4,700.6c0,1.5-1.2,2.8-2.8,2.8s-2.8-1.2-2.8-2.8c0-1.5,1.2-2.8,2.8-2.8
					c0.5,0,0.9,0.1,1.4,0.4C463.9,698.6,464.4,699.6,464.4,700.6z"/>
				
					<linearGradient id="SVGID_00000048467887101060717690000017480272356724902044_" gradientUnits="userSpaceOnUse" x1="34.9838" y1="309.0831" x2="-130.8762" y2="216.4131" gradientTransform="matrix(-1 0 0 1 330.17 455.42)">
					<stop  offset="0" style="stop-color:#D49895"/>
					<stop  offset="1" style="stop-color:#AA312C"/>
				</linearGradient>
				<path style="fill:url(#SVGID_00000048467887101060717690000017480272356724902044_);" d="M272,773.3c0-0.9-0.3-1.7-0.8-2.4
					l29-29h74.3l59.2-59.2c1.6,1,3.8,0.6,4.9-1.1c1-1.6,0.6-3.8-1.1-4.9c-1.6-1-3.8-0.6-4.9,1.1c-0.7,1.2-0.7,2.7,0,3.8l-58.7,58.7
					h-74.3l-29.4,29.4c-0.7-0.5-1.6-0.8-2.5-0.8c-2.4,0-4.3,1.9-4.2,4.3c0,2.4,1.9,4.3,4.3,4.2C270.1,777.5,272,775.6,272,773.3z
					 M267.7,776c-1.5,0-2.8-1.2-2.8-2.8s1.2-2.8,2.8-2.8c0.5,0,0.9,0.1,1.4,0.4c0.9,0.5,1.4,1.4,1.4,2.4
					C270.5,774.8,269.3,776,267.7,776C267.7,776,267.7,776,267.7,776z"/>
				
					<linearGradient id="SVGID_00000152970423410863038130000011322657989500546181_" gradientUnits="userSpaceOnUse" x1="100.1098" y1="53.6298" x2="101.5398" y2="328.0898" gradientTransform="matrix(-1 0 0 1 330.17 455.42)">
					<stop  offset="0" style="stop-color:#EED6D5"/>
					<stop  offset="1" style="stop-color:#AA312C"/>
				</linearGradient>
				<path style="fill:url(#SVGID_00000152970423410863038130000011322657989500546181_);" d="M235.1,519.9v62.2l13.4,13.3v46.9
					l-12.8,12.8v8.1l-33.9,33.9c-0.7-0.5-1.6-0.8-2.4-0.8c-2.4,0-4.3,1.9-4.3,4.3c0,2.4,1.9,4.3,4.3,4.3s4.3-1.9,4.3-4.3
					c0,0,0,0,0,0c0-0.9-0.3-1.7-0.8-2.4l9.4-9.4v17.3l-21.7,21.6V782l10.9,10.9v46.6h1.5V733.7l62-62v-143c2.3-0.4,3.9-2.6,3.5-5
					s-2.6-3.9-5-3.5c-2.3,0.4-3.9,2.6-3.5,5c0.3,1.8,1.7,3.1,3.5,3.5V671l-62,62v57.7l-9.4-9.4v-53l21.7-21.7v-19.4l0,0l23.4-23.4
					v-8.1l11.4-11.4V667L231,684.5c-0.7-0.5-1.6-0.8-2.4-0.8c-2.4,0-4.3,1.9-4.3,4.3c0,2.4,1.9,4.3,4.3,4.3c2.4,0,4.3-1.9,4.3-4.3
					c0-0.9-0.3-1.7-0.8-2.4l17.9-17.9v-72.9l-13.3-13.3v-61.5c2.3-0.4,3.8-2.6,3.4-4.9c-0.4-2.3-2.6-3.8-4.9-3.4
					c-2.3,0.4-3.8,2.6-3.4,4.9C232.1,518.2,233.5,519.6,235.1,519.9L235.1,519.9z M202.1,700.6c0,1.5-1.2,2.8-2.8,2.8
					s-2.8-1.2-2.8-2.8c0-1.5,1.2-2.8,2.8-2.8c0,0,0,0,0,0c0.5,0,0.9,0.1,1.3,0.4c0.4,0.2,0.8,0.6,1.1,1.1
					C201.9,699.6,202.1,700.1,202.1,700.6z M261.4,524.5c0-1.5,1.2-2.8,2.8-2.8c1.5,0,2.8,1.2,2.8,2.8l0,0c0,1.2-0.8,2.3-2,2.7
					c-0.2,0.1-0.5,0.1-0.8,0.1c-0.3,0-0.5,0-0.7-0.1C262.2,526.8,261.4,525.7,261.4,524.5z M231.3,688c0,1.5-1.3,2.8-2.8,2.7
					c-1.5,0-2.8-1.3-2.7-2.8c0-1.5,1.2-2.7,2.8-2.7C230.1,685.2,231.3,686.5,231.3,688z M235.9,513c1.5,0,2.8,1.3,2.7,2.8
					c0,1.2-0.8,2.3-2,2.6c-0.2,0.1-0.5,0.1-0.7,0.1c-0.3,0-0.5,0-0.8-0.1c-1.5-0.4-2.3-2-1.8-3.4C233.7,513.8,234.7,513,235.9,513
					L235.9,513z"/>
				
					<linearGradient id="SVGID_00000160159001509445983690000006121773821246297255_" gradientUnits="userSpaceOnUse" x1="72.2254" y1="79.383" x2="88.0954" y2="79.383" gradientTransform="matrix(-1 0 0 1 330.17 455.42)">
					<stop  offset="0" style="stop-color:#EED6D5"/>
					<stop  offset="1" style="stop-color:#AA312C"/>
				</linearGradient>
				<path style="fill:url(#SVGID_00000160159001509445983690000006121773821246297255_);" d="M245.6,496.6v73.6l5.9,5.9
					c-1,1.6-0.6,3.8,1.1,4.8c1.6,1,3.8,0.6,4.8-1.1s0.6-3.8-1.1-4.8c-0.6-0.4-1.2-0.5-1.8-0.5c-0.7,0-1.3,0.2-1.9,0.6l0,0l-5.4-5.4
					v-73c2.3-0.4,3.9-2.6,3.5-5s-2.6-3.9-5-3.5s-3.9,2.6-3.5,5C242.5,494.9,243.9,496.3,245.6,496.6L245.6,496.6z M246.3,489.6
					c1.5,0,2.8,1.2,2.8,2.8c0,0,0,0,0,0c0,1.2-0.8,2.3-2,2.6c-0.2,0.1-0.5,0.1-0.8,0.1c-0.3,0-0.5,0-0.7-0.1c-1.2-0.3-2-1.4-2-2.6
					C243.6,490.9,244.8,489.7,246.3,489.6L246.3,489.6z"/>
				
					<linearGradient id="SVGID_00000126293780582441868960000009233133136245956240_" gradientUnits="userSpaceOnUse" x1="-301.7796" y1="337.12" x2="-301.7796" y2="162.8" gradientTransform="matrix(-1 0 0 1 330.17 455.42)">
					<stop  offset="0" style="stop-color:#EED6D5"/>
					<stop  offset="1" style="stop-color:#AA312C"/>
				</linearGradient>
				<path style="fill:url(#SVGID_00000126293780582441868960000009233133136245956240_);" d="M631.9,674c-2.4,0-4.3,2-4.2,4.3
					c0,2,1.5,3.8,3.5,4.1v184h1.5v-184c2.3-0.4,3.9-2.6,3.5-4.9C635.8,675.5,634,673.9,631.9,674z M632.7,680.9
					c-0.2,0.1-0.5,0.1-0.7,0.1c-0.3,0-0.5,0-0.8-0.1c-1.2-0.3-2-1.4-2-2.6c0-1.5,1.2-2.8,2.8-2.8c1.5,0,2.8,1.2,2.8,2.8c0,0,0,0,0,0
					C634.7,679.5,633.9,680.6,632.7,680.9L632.7,680.9z"/>
				
					<linearGradient id="SVGID_00000141452405675147295720000016659976372315652263_" gradientUnits="userSpaceOnUse" x1="-318.9704" y1="337.12" x2="-318.9704" y2="162.8" gradientTransform="matrix(-1 0 0 1 330.17 455.42)">
					<stop  offset="0" style="stop-color:#EED6D5"/>
					<stop  offset="1" style="stop-color:#AA312C"/>
				</linearGradient>
				<path style="fill:url(#SVGID_00000141452405675147295720000016659976372315652263_);" d="M655.1,813.3v-39.9l-14-14v-52.3
					l9.5-9.4v-78.4c2.3-0.4,3.9-2.6,3.5-5c-0.4-2.3-2.6-3.9-5-3.5c-2.3,0.4-3.9,2.6-3.5,5c0.3,1.8,1.7,3.1,3.5,3.5v77.8l-9.5,9.4
					V760l14,14v39.2c-2.3,0.4-3.9,2.6-3.5,5c0.4,2.3,2.6,3.9,5,3.5c2.3-0.4,3.9-2.6,3.5-5C658.3,815,656.9,813.6,655.1,813.3z
					 M647.1,615c0-1.5,1.2-2.8,2.8-2.8c1.5,0,2.8,1.2,2.8,2.8c0,1.2-0.8,2.3-2,2.7c-0.2,0.1-0.5,0.1-0.8,0.1c-0.3,0-0.5,0-0.7-0.1
					C647.9,617.3,647.1,616.3,647.1,615z M654.4,820.2c-1.5,0-2.8-1.2-2.8-2.8c0-1.2,0.8-2.3,2-2.6c0.2-0.1,0.5-0.1,0.7-0.1
					c0.3,0,0.5,0,0.8,0.1c1.2,0.3,2,1.4,2,2.6C657.1,819,655.9,820.2,654.4,820.2L654.4,820.2z"/>
				
					<linearGradient id="SVGID_00000165932606977648981990000015068567916812266170_" gradientUnits="userSpaceOnUse" x1="-409.9514" y1="364.62" x2="-389.9913" y2="364.62" gradientTransform="matrix(-1 0 0 1 330.17 455.42)">
					<stop  offset="0" style="stop-color:#D49895"/>
					<stop  offset="1" style="stop-color:#AA312C"/>
				</linearGradient>
				<path style="fill:url(#SVGID_00000165932606977648981990000015068567916812266170_);" d="M736.7,803.7c-1.9,0-3.5,1.5-3.5,3.5
					c0,1.6,1.1,3,2.7,3.4v9.1L725.5,830c-0.6-0.4-1.2-0.6-1.9-0.6c-1.9,0-3.5,1.5-3.5,3.5s1.5,3.5,3.5,3.5c1.9,0,3.5-1.5,3.5-3.5
					c0-0.6-0.2-1.3-0.5-1.8l10.9-10.9v-9.7c1.9-0.4,3-2.3,2.6-4.1C739.7,804.8,738.3,803.7,736.7,803.7L736.7,803.7z M725.9,832.9
					c0,1.2-1,2.3-2.2,2.3c-1.2,0-2.3-1-2.3-2.2c0-1.2,1-2.3,2.2-2.3c0.3,0,0.7,0.1,1,0.2c0.5,0.2,0.8,0.6,1.1,1.1
					C725.8,832.3,725.9,832.6,725.9,832.9z M737.4,809.2c-0.2,0.1-0.5,0.1-0.8,0.1c-0.3,0-0.5,0-0.7-0.1c-0.9-0.3-1.5-1.1-1.5-2.1
					c0-1.2,1-2.2,2.2-2.2s2.2,1,2.2,2.2C738.9,808,738.3,808.9,737.4,809.2z"/>
				
					<linearGradient id="SVGID_00000008850514858447632530000015977576402137009050_" gradientUnits="userSpaceOnUse" x1="-211.8" y1="336.62" x2="-91.564" y2="336.62" gradientTransform="matrix(-1 0 0 1 330.17 455.42)">
					<stop  offset="0" style="stop-color:#D49895"/>
					<stop  offset="1" style="stop-color:#AA312C"/>
				</linearGradient>
				<path style="fill:url(#SVGID_00000008850514858447632530000015977576402137009050_);" d="M426,823.2c2.1,0,3.8-1.5,4.2-3.5h54.1
					l51-51c0.7,0.5,1.6,0.8,2.4,0.8c2.4,0,4.3-1.9,4.3-4.3c0-2.4-1.9-4.3-4.3-4.3c-2.4,0-4.3,1.9-4.3,4.3c0,0.9,0.3,1.7,0.8,2.4
					l-50.5,50.5h-53.5c-0.4-2.3-2.6-3.9-4.9-3.5s-3.9,2.6-3.5,4.9C422.2,821.6,423.9,823.1,426,823.2L426,823.2z M534.9,765.2
					c0-1.5,1.2-2.8,2.8-2.8s2.8,1.2,2.8,2.8c0,1.5-1.2,2.8-2.8,2.8c0,0,0,0,0,0c-0.5,0-0.9-0.1-1.3-0.4c-0.5-0.2-0.8-0.6-1.1-1.1
					C535,766.1,534.9,765.7,534.9,765.2L534.9,765.2z M426,816.1c1.2,0,2.3,0.8,2.6,2c0.1,0.2,0.1,0.5,0.1,0.7c0,0.3,0,0.5-0.1,0.8
					c-0.3,1.2-1.4,2-2.6,2c-1.5,0-2.8-1.2-2.8-2.8C423.2,817.3,424.5,816.1,426,816.1L426,816.1z"/>
				
					<linearGradient id="SVGID_00000062909793855868532010000015925112703460519317_" gradientUnits="userSpaceOnUse" x1="-232.5211" y1="254.1" x2="-148.63" y2="254.1" gradientTransform="matrix(-1 0 0 1 330.17 455.42)">
					<stop  offset="0" style="stop-color:#D49895"/>
					<stop  offset="1" style="stop-color:#AA312C"/>
				</linearGradient>
				<path style="fill:url(#SVGID_00000062909793855868532010000015925112703460519317_);" d="M558.4,676.1c2.4,0,4.3-1.9,4.3-4.3
					c0-2.4-1.9-4.3-4.3-4.3s-4.3,1.9-4.3,4.3c0,0.9,0.3,1.7,0.8,2.4l-69.4,69.4l0,0c-0.7-0.5-1.6-0.8-2.4-0.8
					c-2.4,0-4.3,1.9-4.3,4.3c0,2.4,1.9,4.3,4.3,4.3c2.4,0,4.3-1.9,4.3-4.3c0-0.9-0.3-1.7-0.8-2.4l69.4-69.4
					C556.7,675.9,557.5,676.1,558.4,676.1z M485.8,747.2c0,1.5-1.2,2.8-2.8,2.8s-2.8-1.2-2.8-2.8c0-1.5,1.2-2.8,2.8-2.8
					c0.5,0,0.9,0.1,1.3,0.4c0.5,0.2,0.9,0.6,1.1,1.1C485.7,746.3,485.8,746.7,485.8,747.2L485.8,747.2z M555.7,671.8
					c0-1.5,1.3-2.8,2.8-2.7c1.5,0,2.8,1.3,2.7,2.8c0,1.5-1.2,2.7-2.8,2.7c-0.5,0-0.9-0.1-1.3-0.4c-0.5-0.2-0.8-0.6-1.1-1.1
					C555.8,672.8,555.6,672.3,555.7,671.8L555.7,671.8z"/>
				
					<linearGradient id="SVGID_00000106120885294258349990000002987247292191924407_" gradientUnits="userSpaceOnUse" x1="31.255" y1="35.1" x2="31.255" y2="189.08" gradientTransform="matrix(-1 0 0 1 330.17 455.42)">
					<stop  offset="0" style="stop-color:#EED6D5"/>
					<stop  offset="1" style="stop-color:#BB5A56"/>
				</linearGradient>
				<path style="fill:url(#SVGID_00000106120885294258349990000002987247292191924407_);" d="M276.4,503.8v54.1l14.2,14.2V599
					c-2.3,0.4-3.9,2.6-3.5,5c0.4,2.3,2.6,3.9,5,3.5c2.3-0.4,3.9-2.6,3.5-5c-0.3-1.8-1.7-3.1-3.5-3.5v-27.5l-14.2-14.2v-16.9
					l24.6,24.6v33.7l16.7,16.7v20.2c-2.3,0.4-3.8,2.6-3.4,4.9c0.4,2.3,2.6,3.8,4.9,3.4c2.3-0.4,3.8-2.6,3.4-4.9
					c-0.3-1.7-1.7-3.1-3.4-3.4v-20.8L304,598v-33.7l-26.1-26.1v-34.4c1.9-0.4,3.1-2.3,2.7-4.2c-0.4-1.9-2.3-3.1-4.2-2.7
					c-1.9,0.4-3.1,2.3-2.7,4.2C274,502.4,275,503.5,276.4,503.8L276.4,503.8z M294.1,603.1c0,1.5-1.2,2.8-2.8,2.8
					c-1.5,0-2.8-1.2-2.8-2.8c0-1.2,0.8-2.3,2-2.6c0.3-0.1,0.5-0.1,0.8-0.1c0.2,0,0.5,0,0.7,0.1C293.3,600.8,294.2,601.9,294.1,603.1
					z M322.7,639.7c0,1.5-1.2,2.8-2.8,2.8c-1.5,0-2.8-1.2-2.8-2.8c0-1.2,0.8-2.3,2-2.6c0.2-0.1,0.5-0.1,0.7-0.1c0.3,0,0.5,0,0.8,0.1
					C321.9,637.4,322.7,638.5,322.7,639.7L322.7,639.7z"/>
				
					<linearGradient id="SVGID_00000156550751685985200790000017752106830975946885_" gradientUnits="userSpaceOnUse" x1="-18.7299" y1="-1.12" x2="-19.1999" y2="137.18" gradientTransform="matrix(-1 0 0 1 330.17 455.42)">
					<stop  offset="0" style="stop-color:#D49895"/>
					<stop  offset="1" style="stop-color:#AA312C"/>
				</linearGradient>
				<path style="fill:url(#SVGID_00000156550751685985200790000017752106830975946885_);" d="M328.5,458.8v47.7l39,39v33.1
					c-2.3,0.4-3.8,2.6-3.4,4.9c0.4,2.3,2.6,3.8,4.9,3.4c2.3-0.4,3.8-2.6,3.4-4.9c-0.3-1.7-1.7-3.1-3.4-3.4v-33.7l-39-39v-47.1
					c1.9-0.4,3.1-2.3,2.7-4.2c-0.4-1.9-2.3-3.1-4.2-2.7s-3.1,2.3-2.7,4.2C326.1,457.4,327.2,458.5,328.5,458.8L328.5,458.8z
					 M371,582.8c0,1.5-1.2,2.8-2.8,2.8s-2.8-1.2-2.8-2.8c0-1.2,0.8-2.3,2-2.6c0.2-0.1,0.5-0.1,0.7-0.1c0.3,0,0.5,0,0.8,0.1
					C370.2,580.5,371,581.6,371,582.8L371,582.8z"/>
				
					<linearGradient id="SVGID_00000063612835306532931680000008552702769816534193_" gradientUnits="userSpaceOnUse" x1="-144.01" y1="382.69" x2="-92.35" y2="382.69" gradientTransform="matrix(-1 0 0 1 330.17 455.42)">
					<stop  offset="0" style="stop-color:#D49895"/>
					<stop  offset="1" style="stop-color:#AA312C"/>
				</linearGradient>
				<path style="fill:url(#SVGID_00000063612835306532931680000008552702769816534193_);" d="M426,827.9c-1.9,0-3.5,1.6-3.5,3.5
					c0,1.9,1.6,3.5,3.5,3.5c1.7,0,3.1-1.1,3.4-2.8h41.1l-15.1,15.1l1.1,1.1l17.7-17.7h-44.8C429.1,829,427.6,827.9,426,827.9z"/>
				
					<linearGradient id="SVGID_00000096776654715606572060000009529094843238261130_" gradientUnits="userSpaceOnUse" x1="49.4993" y1="248.9652" x2="117.2707" y2="248.9652" gradientTransform="matrix(-1 0 0 1 330.17 455.42)">
					<stop  offset="0" style="stop-color:#EED6D5"/>
					<stop  offset="1" style="stop-color:#AA312C"/>
				</linearGradient>
				<path style="fill:url(#SVGID_00000096776654715606572060000009529094843238261130_);" d="M276.4,621.3v55.2l-60.8,60.8v50.1
					c-1.9,0.4-3.1,2.3-2.7,4.2c0.4,1.9,2.3,3.1,4.2,2.7c1.9-0.4,3.1-2.3,2.7-4.2c-0.3-1.3-1.3-2.4-2.7-2.7v-49.5l60.8-60.8v-55.8
					c1.9-0.4,3.1-2.3,2.7-4.2s-2.3-3.1-4.2-2.7c-1.9,0.4-3.1,2.3-2.7,4.2C274.1,620,275.1,621,276.4,621.3L276.4,621.3z"/>
				
					<linearGradient id="SVGID_00000176027756026902859420000009550945934780660117_" gradientUnits="userSpaceOnUse" x1="-343.2782" y1="159.61" x2="-343.2782" y2="416.25" gradientTransform="matrix(-1 0 0 1 330.17 455.42)">
					<stop  offset="0" style="stop-color:#D49895"/>
					<stop  offset="1" style="stop-color:#AA312C"/>
				</linearGradient>
				<path style="fill:url(#SVGID_00000176027756026902859420000009550945934780660117_);" d="M673.3,618.3c-1.9,0-3.5,1.6-3.5,3.5
					c0,1.6,1,3,2.5,3.4v241.2h1.5V625.3c1.9-0.1,3.4-1.8,3.2-3.8S675.2,618.2,673.3,618.3L673.3,618.3z"/>
				
					<linearGradient id="SVGID_00000120554852397922154110000006252064731231696523_" gradientUnits="userSpaceOnUse" x1="-287.3343" y1="59.3303" x2="-179.7" y2="59.3303" gradientTransform="matrix(-1 0 0 1 330.17 455.42)">
					<stop  offset="0" style="stop-color:#EED6D5"/>
					<stop  offset="1" style="stop-color:#AA312C"/>
				</linearGradient>
				<path style="fill:url(#SVGID_00000120554852397922154110000006252064731231696523_);" d="M580.9,490.5c-1.6,0-3.1,1.1-3.4,2.8
					H552l-42.2,42.2H609c0.4,2.3,2.6,3.9,5,3.5c2.3-0.4,3.9-2.6,3.5-5c-0.4-2.3-2.6-3.9-5-3.5c-1.8,0.3-3.1,1.7-3.5,3.5h-95.5
					l39.2-39.2h24.8c0.4,1.9,2.3,3.1,4.2,2.7s3.1-2.3,2.7-4.2C583.9,491.7,582.5,490.5,580.9,490.5L580.9,490.5z M613.2,531.9
					c1.5,0,2.8,1.2,2.8,2.8c0,1.5-1.2,2.8-2.8,2.8c-1.2,0-2.3-0.8-2.7-2c-0.1-0.2-0.1-0.5-0.1-0.8c0-0.3,0-0.5,0.1-0.7
					C610.9,532.7,612,531.9,613.2,531.9z"/>
				
					<linearGradient id="SVGID_00000176031663549403965170000003728098810662116020_" gradientUnits="userSpaceOnUse" x1="-442.99" y1="-208.085" x2="-237.72" y2="-208.085" gradientTransform="matrix(-1 0 0 1 330.17 455.42)">
					<stop  offset="0" style="stop-color:#D49895"/>
					<stop  offset="1" style="stop-color:#AA312C"/>
				</linearGradient>
				<path style="fill:url(#SVGID_00000176031663549403965170000003728098810662116020_);" d="M571.4,332.2c-1.9,0-3.5,1.6-3.5,3.5
					c0,1.9,1.6,3.5,3.5,3.5s3.5-1.6,3.5-3.5c0,0,0,0,0,0c0-0.5-0.1-1.1-0.4-1.5l102.5-102.5v-36.2l38.6-38.6h57.5v-1.5h-58.1
					l-39.4,39.4V231l-102,102C573,332.5,572.2,332.2,571.4,332.2z"/>
				
					<linearGradient id="SVGID_00000028290175726574803410000008057845661010212269_" gradientUnits="userSpaceOnUse" x1="-122.54" y1="-12.57" x2="-55.7001" y2="-12.57" gradientTransform="matrix(-1 0 0 1 330.17 455.42)">
					<stop  offset="0" style="stop-color:#D49895"/>
					<stop  offset="1" style="stop-color:#AA312C"/>
				</linearGradient>
				<path style="fill:url(#SVGID_00000028290175726574803410000008057845661010212269_);" d="M389.4,456.6c1.7,0,3.1-1.2,3.4-2.8
					h36.3l16.9-16.9c0.7,0.5,1.6,0.8,2.4,0.8c2.4,0,4.3-1.9,4.3-4.3c0-2.4-1.9-4.3-4.3-4.3c-2.4,0-4.3,1.9-4.3,4.3
					c0,0.9,0.3,1.7,0.8,2.4l-16.5,16.4h-35.7c-0.4-1.9-2.3-3.1-4.2-2.7c-1.9,0.4-3.1,2.3-2.7,4.2
					C386.3,455.4,387.7,456.6,389.4,456.6L389.4,456.6z M445.7,433.4c0-1.5,1.2-2.8,2.8-2.8c1.5,0,2.8,1.2,2.8,2.8
					c0,1.5-1.2,2.8-2.8,2.8c-0.5,0-0.9-0.1-1.3-0.4c-0.4-0.2-0.8-0.6-1.1-1.1C445.8,434.3,445.7,433.8,445.7,433.4z"/>
				
					<linearGradient id="SVGID_00000087383229173911283030000002096164382099915426_" gradientUnits="userSpaceOnUse" x1="-372.89" y1="-105.35" x2="-174.94" y2="-105.35" gradientTransform="matrix(-1 0 0 1 330.17 455.42)">
					<stop  offset="0" style="stop-color:#D49895"/>
					<stop  offset="1" style="stop-color:#AA312C"/>
				</linearGradient>
				<path style="fill:url(#SVGID_00000087383229173911283030000002096164382099915426_);" d="M550.8,356.7c-2.4,0-4.3,1.9-4.3,4.3
					c0,2.4,1.9,4.3,4.3,4.3c2,0,3.8-1.4,4.2-3.4H599l25.5,25.5h32.2l73.2-73.2h32.5v-1.5h-33.2l-73.2,73.2h-31l-25.5-25.5H555
					C554.6,358.3,552.9,356.8,550.8,356.7z M550.8,363.7c-1.5,0-2.8-1.2-2.8-2.8c0-1.5,1.2-2.8,2.8-2.8l0,0c1.3,0,2.4,0.9,2.7,2.1
					c0.1,0.2,0.1,0.4,0.1,0.6c0,0.3,0,0.6-0.2,0.9C553,363,551.9,363.8,550.8,363.7L550.8,363.7z"/>
				
					<linearGradient id="SVGID_00000182494875743416352040000002298431022639555490_" gradientUnits="userSpaceOnUse" x1="-131.89" y1="26.4352" x2="-33.77" y2="26.4352" gradientTransform="matrix(-1 0 0 1 330.17 455.42)">
					<stop  offset="0" style="stop-color:#D49895"/>
					<stop  offset="1" style="stop-color:#AA312C"/>
				</linearGradient>
				<path style="fill:url(#SVGID_00000182494875743416352040000002298431022639555490_);" d="M368.2,501.4c2.1,0,3.9-1.5,4.2-3.5h55
					l27.9-27.9c0.7,0.5,1.6,0.8,2.4,0.8c2.4,0,4.3-1.9,4.3-4.3c0-2.4-1.9-4.3-4.3-4.3c-2.4,0-4.3,1.9-4.3,4.3c0,0.9,0.3,1.7,0.8,2.4
					l-27.4,27.4h-54.4c-0.4-2.3-2.6-3.9-4.9-3.5s-3.9,2.6-3.5,4.9C364.5,499.9,366.2,501.4,368.2,501.4L368.2,501.4z M455.1,466.5
					c0-1.5,1.2-2.8,2.8-2.8c1.5,0,2.8,1.2,2.8,2.8c0,1.5-1.2,2.8-2.8,2.8c0,0,0,0,0,0c-0.5,0-0.9-0.1-1.3-0.4
					c-0.4-0.2-0.8-0.6-1.1-1.1C455.2,467.5,455.1,467,455.1,466.5z M368.2,494.4c1.2,0,2.3,0.8,2.6,2c0.1,0.2,0.1,0.5,0.1,0.7
					c0,0.3,0,0.5-0.1,0.8c-0.3,1.2-1.4,2-2.6,2c-1.5,0-2.8-1.2-2.8-2.8C365.5,495.6,366.7,494.3,368.2,494.4L368.2,494.4z"/>
				
					<linearGradient id="SVGID_00000086665266510636326920000011514455182209623475_" gradientUnits="userSpaceOnUse" x1="-224.8607" y1="-93.09" x2="-66.6021" y2="-93.09" gradientTransform="matrix(-1 0 0 1 330.17 455.42)">
					<stop  offset="0" style="stop-color:#D49895"/>
					<stop  offset="1" style="stop-color:#AA312C"/>
				</linearGradient>
				<path style="fill:url(#SVGID_00000086665266510636326920000011514455182209623475_);" d="M401,443.1c2.1,0,3.8-1.5,4.2-3.5H422
					l34.7-34.6h21.3l-13,13c-1.6-1-3.8-0.6-4.8,1.1c-1,1.6-0.6,3.8,1.1,4.8c1.6,1,3.8,0.6,4.8-1.1c0.3-0.6,0.5-1.2,0.5-1.8
					c0-0.7-0.2-1.3-0.6-1.9l40.5-40.4v-49.9l43.6-43.6v50.5c-2.3,0.4-3.9,2.6-3.5,5s2.6,3.9,5,3.5s3.9-2.6,3.5-5
					c-0.3-1.8-1.7-3.1-3.5-3.5v-54.1l-46.6,46.6V378l-25.5,25.5H456l-34.6,34.6h-16.1c-0.4-2.3-2.6-3.9-4.9-3.5
					c-2.3,0.4-3.9,2.6-3.5,4.9C397.2,441.6,399,443.1,401,443.1L401,443.1z M553.5,339.8c0,1.5-1.2,2.8-2.7,2.8
					c-1.5,0-2.8-1.2-2.8-2.7c0-1.3,0.8-2.4,2-2.7c0.2-0.1,0.5-0.1,0.8-0.1c0.3,0,0.5,0,0.7,0.1C552.7,337.5,553.5,338.6,553.5,339.8
					z M401,436.1c1.2,0,2.3,0.8,2.6,2c0.1,0.2,0.1,0.5,0.1,0.8c0,0.3,0,0.5-0.1,0.7c-0.3,1.2-1.4,2-2.6,2c-1.5,0-2.8-1.2-2.8-2.8
					C398.3,437.3,399.5,436.1,401,436.1C401,436.1,401,436.1,401,436.1L401,436.1z"/>
				
					<linearGradient id="SVGID_00000091709383425096489470000014132249594102889105_" gradientUnits="userSpaceOnUse" x1="-0.3799" y1="41.52" x2="6.7401" y2="235.42" gradientTransform="matrix(-1 0 0 1 330.17 455.42)">
					<stop  offset="0" style="stop-color:#D49895"/>
					<stop  offset="1" style="stop-color:#AA312C"/>
				</linearGradient>
				<path style="fill:url(#SVGID_00000091709383425096489470000014132249594102889105_);" d="M307.7,486v27.5l37.7,37.7v132.6
					c-2.3,0.4-3.8,2.6-3.4,4.9c0.4,2.3,2.6,3.8,4.9,3.4c2.3-0.4,3.8-2.6,3.4-4.9c-0.3-1.7-1.7-3.1-3.4-3.4V550.6l-37.7-37.7V486
					c2.3-0.4,3.8-2.6,3.4-4.9c-0.4-2.3-2.6-3.8-4.9-3.4c-2.3,0.4-3.8,2.6-3.4,4.9C304.6,484.4,306,485.7,307.7,486z M348.9,688
					c0,1.5-1.2,2.8-2.8,2.8c-1.5,0-2.8-1.2-2.8-2.8c0-1.2,0.8-2.3,2-2.7c0.2-0.1,0.5-0.1,0.7-0.1c0.3,0,0.5,0,0.8,0.1
					C348.1,685.6,348.9,686.7,348.9,688z M308.5,479.1c1.5,0,2.8,1.2,2.8,2.8c0,1.2-0.8,2.3-2,2.6c-0.2,0.1-0.5,0.1-0.7,0.1
					c-0.3,0-0.5,0-0.8-0.1c-1.2-0.3-2-1.4-2-2.6C305.8,480.3,307,479.1,308.5,479.1z"/>
			</g>
		</g>
	</g>
</g>
</svg>
